<svg width="74" height="52" viewBox="0 0 74 52" fill="none" xmlns="http://www.w3.org/2000/svg">
<path d="M55.6204 15.0643C55.5195 15.0643 5.21768 15.0643 5.21768 15.0643L15.8156 3.12854C16.5028 2.35448 16.4355 1.16725 15.6651 0.476694C14.895 -0.213714 13.7132 -0.146329 13.026 0.627876L1.09031 14.0701C-0.363532 15.7079 -0.363387 18.1774 1.09045 19.8148L13.0261 33.2572C13.3955 33.6732 13.9073 33.885 14.4214 33.885C14.8643 33.885 15.3087 33.7277 15.6652 33.4083C16.4356 32.7178 16.5028 31.5306 15.8157 30.7565L5.21782 18.8206C5.21782 18.8206 55.5195 18.8206 55.6206 18.8206C63.6938 18.8206 70.2616 25.4203 70.2616 33.5321C70.2616 41.6439 63.6936 48.2436 55.6206 48.2436H46.7203C45.688 48.2436 44.8511 49.0846 44.8511 50.1218C44.8511 51.159 45.688 52 46.7203 52H55.6206C65.7551 52 74 43.7154 74 33.5321C73.9999 23.3489 65.7549 15.0643 55.6204 15.0643Z" fill="#795F39"/>
</svg>
