<svg width="79" height="75" viewBox="0 0 103 98" fill="none" xmlns="http://www.w3.org/2000/svg">
<path d="M58.3962 26.3994C57.595 25.5939 56.2958 25.5939 55.4943 26.3994L53.5454 28.3586C52.7441 29.1641 52.7441 30.4701 53.5454 31.2757C53.9461 31.6784 54.4714 31.8798 54.9964 31.8798C55.5215 31.8798 56.0467 31.6786 56.4473 31.2757L58.3962 29.3165C59.1975 28.5111 59.1975 27.2049 58.3962 26.3994Z" fill="#ED8B00"/>
<path d="M100.948 77.482H68.778V54.8399C68.778 54.8263 68.7762 54.813 68.776 54.7994L96.8868 26.5407C97.688 25.7353 97.688 24.4293 96.8868 23.6238L73.9873 0.604058C73.6027 0.217396 73.0809 0 72.5365 0C71.9921 0 71.4705 0.217396 71.0856 0.604058L14.2432 57.7455C13.4419 58.551 13.4419 59.857 14.2432 60.6625L15.5132 61.9391L0.956794 71.1735C0.42932 71.5082 0.0818956 72.0657 0.0126924 72.6888C-0.0565109 73.3119 0.159749 73.9327 0.60092 74.3762L23.5004 97.3959C23.8874 97.7848 24.4101 98 24.9512 98C25.0268 98 25.1031 97.9958 25.1789 97.9873C25.7987 97.9177 26.3536 97.5686 26.6863 97.0382L35.8724 82.4053L37.1424 83.682C37.5271 84.0686 38.0491 84.286 38.5933 84.286C39.1375 84.286 39.6593 84.0686 40.0442 83.682L64.6741 58.9225V79.5446C64.6741 80.6837 65.5926 81.6071 66.7258 81.6071H100.948C102.081 81.6071 103 80.6837 103 79.5446C103 78.4054 102.082 77.482 100.948 77.482ZM62.4582 15.111L69.4634 22.153L35.6793 56.1147L33.7088 54.1339L50.4383 37.3165C51.2396 36.511 51.2396 35.205 50.4383 34.3994C49.6371 33.5939 48.3379 33.5939 47.5364 34.3994L30.8069 51.2167L28.6741 49.0727L62.4582 15.111ZM24.5863 92.6541L5.31821 73.2846L18.4881 64.9297L32.8975 79.4147L24.5863 92.6541ZM38.5935 79.3068L18.5956 59.2038L25.7724 51.9893L34.2285 60.4897C34.629 60.8926 35.1543 61.0938 35.6793 61.0938C36.2044 61.0938 36.7296 60.8926 37.1302 60.4897L73.8159 23.6113C74.6172 22.8058 74.6172 21.4998 73.8159 20.6941L65.3599 12.1936L72.5367 4.97908L92.5346 25.0821L38.5935 79.3068Z" fill="#ED8B00"/>
</svg>
