<svg width="76" height="71" viewBox="0 0 76 71" fill="none" xmlns="http://www.w3.org/2000/svg">
<path d="M74.6897 67.491H72.069V23.991C72.069 23.991 72.069 23.871 72.069 23.826C72.0764 23.7261 72.0764 23.6258 72.069 23.526C72.0419 23.4322 72.0068 23.3418 71.9641 23.256L71.82 23.031C71.7643 22.9498 71.698 22.879 71.6234 22.821C71.6234 22.821 71.5579 22.731 71.5055 22.701L38.7469 0.200963C38.5477 0.06931 38.3217 0 38.0917 0C37.8617 0 37.6357 0.06931 37.4366 0.200963L4.67793 22.701C4.67793 22.701 4.59931 22.791 4.56 22.821C4.48545 22.879 4.41916 22.9498 4.36345 23.031C4.30806 23.1048 4.25974 23.1853 4.21931 23.271C4.17408 23.3499 4.13879 23.4357 4.11448 23.526C4.10707 23.6258 4.10707 23.7261 4.11448 23.826L3.93103 23.991V67.491H1.31034C0.96282 67.491 0.629528 67.649 0.383791 67.9303C0.138054 68.2116 0 68.5931 0 68.991C0 69.3888 0.138054 69.7703 0.383791 70.0516C0.629528 70.3329 0.96282 70.491 1.31034 70.491H74.6897C75.0372 70.491 75.3705 70.3329 75.6162 70.0516C75.8619 69.7703 76 69.3888 76 68.991C76 68.5931 75.8619 68.2116 75.6162 67.9303C75.3705 67.649 75.0372 67.491 74.6897 67.491ZM15.7241 67.491V34.491H60.2759V67.491H15.7241ZM62.8966 67.491V32.991C62.8966 32.5931 62.7585 32.2116 62.5128 31.9303C62.267 31.649 61.9337 31.491 61.5862 31.491H14.4138C14.0663 31.491 13.733 31.649 13.4872 31.9303C13.2415 32.2116 13.1034 32.5931 13.1034 32.991V67.491H6.55172V24.846L38 3.24596L69.4483 24.846V67.491H62.8966Z" fill="#ED8B00"/>
<path d="M41.931 25.491H34.069C33.7214 25.491 33.3881 25.649 33.1424 25.9303C32.8967 26.2116 32.7586 26.5931 32.7586 26.991C32.7586 27.3888 32.8967 27.7703 33.1424 28.0516C33.3881 28.3329 33.7214 28.491 34.069 28.491H41.931C42.2786 28.491 42.6119 28.3329 42.8576 28.0516C43.1033 27.7703 43.2414 27.3888 43.2414 26.991C43.2414 26.5931 43.1033 26.2116 42.8576 25.9303C42.6119 25.649 42.2786 25.491 41.931 25.491Z" fill="#ED8B00"/>
<path d="M49.7931 40.491H26.2069C25.8594 40.491 25.5261 40.649 25.2803 40.9303C25.0346 41.2116 24.8966 41.5931 24.8966 41.991C24.8966 42.3888 25.0346 42.7703 25.2803 43.0516C25.5261 43.3329 25.8594 43.491 26.2069 43.491H49.7931C50.1406 43.491 50.4739 43.3329 50.7197 43.0516C50.9654 42.7703 51.1034 42.3888 51.1034 41.991C51.1034 41.5931 50.9654 41.2116 50.7197 40.9303C50.4739 40.649 50.1406 40.491 49.7931 40.491Z" fill="#ED8B00"/>
<path d="M49.7931 49.491H26.2069C25.8594 49.491 25.5261 49.649 25.2803 49.9303C25.0346 50.2116 24.8966 50.5931 24.8966 50.991C24.8966 51.3888 25.0346 51.7703 25.2803 52.0516C25.5261 52.3329 25.8594 52.491 26.2069 52.491H49.7931C50.1406 52.491 50.4739 52.3329 50.7197 52.0516C50.9654 51.7703 51.1034 51.3888 51.1034 50.991C51.1034 50.5931 50.9654 50.2116 50.7197 49.9303C50.4739 49.649 50.1406 49.491 49.7931 49.491Z" fill="#ED8B00"/>
<path d="M49.7931 58.491H26.2069C25.8594 58.491 25.5261 58.649 25.2803 58.9303C25.0346 59.2116 24.8966 59.5931 24.8966 59.991C24.8966 60.3888 25.0346 60.7703 25.2803 61.0516C25.5261 61.3329 25.8594 61.491 26.2069 61.491H49.7931C50.1406 61.491 50.4739 61.3329 50.7197 61.0516C50.9654 60.7703 51.1034 60.3888 51.1034 59.991C51.1034 59.5931 50.9654 59.2116 50.7197 58.9303C50.4739 58.649 50.1406 58.491 49.7931 58.491Z" fill="#ED8B00"/>
</svg>
