<svg width="300" height="180" viewBox="0 0 300 180" fill="none" xmlns="http://www.w3.org/2000/svg">
<path d="M0 0H300V180H0V0Z" fill="#131315"/>
<path d="M152.91 99L158.58 86.4H160.884L166.572 99H164.124L159.246 87.642H160.182L155.322 99H152.91ZM155.52 96.084L156.15 94.248H162.954L163.584 96.084H155.52Z" fill="#D7FFE7"/>
<path d="M172.281 99.126C171.273 99.126 170.373 98.916 169.581 98.496C168.801 98.064 168.189 97.476 167.745 96.732C167.301 95.988 167.079 95.142 167.079 94.194C167.079 93.234 167.301 92.388 167.745 91.656C168.189 90.912 168.801 90.33 169.581 89.91C170.373 89.49 171.273 89.28 172.281 89.28C173.217 89.28 174.039 89.472 174.747 89.856C175.467 90.228 176.013 90.78 176.385 91.512L174.657 92.52C174.369 92.064 174.015 91.728 173.595 91.512C173.187 91.296 172.743 91.188 172.263 91.188C171.711 91.188 171.213 91.308 170.769 91.548C170.325 91.788 169.977 92.136 169.725 92.592C169.473 93.036 169.347 93.57 169.347 94.194C169.347 94.818 169.473 95.358 169.725 95.814C169.977 96.258 170.325 96.6 170.769 96.84C171.213 97.08 171.711 97.2 172.263 97.2C172.743 97.2 173.187 97.092 173.595 96.876C174.015 96.66 174.369 96.324 174.657 95.868L176.385 96.876C176.013 97.596 175.467 98.154 174.747 98.55C174.039 98.934 173.217 99.126 172.281 99.126Z" fill="#D7FFE7"/>
<path d="M184.252 99V97.056L184.126 96.642V93.24C184.126 92.58 183.928 92.07 183.532 91.71C183.136 91.338 182.536 91.152 181.732 91.152C181.192 91.152 180.658 91.236 180.13 91.404C179.614 91.572 179.176 91.806 178.816 92.106L177.934 90.468C178.45 90.072 179.062 89.778 179.77 89.586C180.49 89.382 181.234 89.28 182.002 89.28C183.394 89.28 184.468 89.616 185.224 90.288C185.992 90.948 186.376 91.974 186.376 93.366V99H184.252ZM181.228 99.126C180.508 99.126 179.878 99.006 179.338 98.766C178.798 98.514 178.378 98.172 178.078 97.74C177.79 97.296 177.646 96.798 177.646 96.246C177.646 95.706 177.772 95.22 178.024 94.788C178.288 94.356 178.714 94.014 179.302 93.762C179.89 93.51 180.67 93.384 181.642 93.384H184.432V94.878H181.804C181.036 94.878 180.52 95.004 180.256 95.256C179.992 95.496 179.86 95.796 179.86 96.156C179.86 96.564 180.022 96.888 180.346 97.128C180.67 97.368 181.12 97.488 181.696 97.488C182.248 97.488 182.74 97.362 183.172 97.11C183.616 96.858 183.934 96.486 184.126 95.994L184.504 97.344C184.288 97.908 183.898 98.346 183.334 98.658C182.782 98.97 182.08 99.126 181.228 99.126Z" fill="#D7FFE7"/>
<path d="M193.349 99.126C192.425 99.126 191.591 98.922 190.847 98.514C190.115 98.094 189.539 97.518 189.119 96.786C188.699 96.054 188.489 95.19 188.489 94.194C188.489 93.198 188.699 92.334 189.119 91.602C189.539 90.87 190.115 90.3 190.847 89.892C191.591 89.484 192.425 89.28 193.349 89.28C194.153 89.28 194.873 89.46 195.509 89.82C196.145 90.168 196.649 90.702 197.021 91.422C197.393 92.142 197.579 93.066 197.579 94.194C197.579 95.31 197.399 96.234 197.039 96.966C196.679 97.686 196.181 98.226 195.545 98.586C194.909 98.946 194.177 99.126 193.349 99.126ZM193.619 97.2C194.159 97.2 194.639 97.08 195.059 96.84C195.491 96.6 195.833 96.252 196.085 95.796C196.349 95.34 196.481 94.806 196.481 94.194C196.481 93.57 196.349 93.036 196.085 92.592C195.833 92.136 195.491 91.788 195.059 91.548C194.639 91.308 194.159 91.188 193.619 91.188C193.079 91.188 192.593 91.308 192.161 91.548C191.741 91.788 191.399 92.136 191.135 92.592C190.883 93.036 190.757 93.57 190.757 94.194C190.757 94.806 190.883 95.34 191.135 95.796C191.399 96.252 191.741 96.6 192.161 96.84C192.593 97.08 193.079 97.2 193.619 97.2ZM196.535 99V96.732L196.625 94.176L196.445 91.62V85.644H198.677V99H196.535Z" fill="#D7FFE7"/>
<path d="M206.156 99.126C205.088 99.126 204.152 98.916 203.348 98.496C202.556 98.064 201.938 97.476 201.494 96.732C201.062 95.988 200.846 95.142 200.846 94.194C200.846 93.234 201.056 92.388 201.476 91.656C201.908 90.912 202.496 90.33 203.24 89.91C203.996 89.49 204.854 89.28 205.814 89.28C206.75 89.28 207.584 89.484 208.316 89.892C209.048 90.3 209.624 90.876 210.044 91.62C210.464 92.364 210.674 93.24 210.674 94.248C210.674 94.344 210.668 94.452 210.656 94.572C210.656 94.692 210.65 94.806 210.638 94.914H202.628V93.42H209.45L208.568 93.888C208.58 93.336 208.466 92.85 208.226 92.43C207.986 92.01 207.656 91.68 207.236 91.44C206.828 91.2 206.354 91.08 205.814 91.08C205.262 91.08 204.776 91.2 204.356 91.44C203.948 91.68 203.624 92.016 203.384 92.448C203.156 92.868 203.042 93.366 203.042 93.942V94.302C203.042 94.878 203.174 95.388 203.438 95.832C203.702 96.276 204.074 96.618 204.554 96.858C205.034 97.098 205.586 97.218 206.21 97.218C206.75 97.218 207.236 97.134 207.668 96.966C208.1 96.798 208.484 96.534 208.82 96.174L210.026 97.56C209.594 98.064 209.048 98.454 208.388 98.73C207.74 98.994 206.996 99.126 206.156 99.126Z" fill="#D7FFE7"/>
<path d="M224.967 89.28C225.735 89.28 226.413 89.43 227.001 89.73C227.601 90.03 228.069 90.492 228.405 91.116C228.741 91.728 228.909 92.52 228.909 93.492V99H226.659V93.78C226.659 92.928 226.473 92.292 226.101 91.872C225.729 91.452 225.195 91.242 224.499 91.242C224.007 91.242 223.569 91.35 223.185 91.566C222.813 91.782 222.519 92.1 222.303 92.52C222.099 92.94 221.997 93.474 221.997 94.122V99H219.747V93.78C219.747 92.928 219.561 92.292 219.189 91.872C218.817 91.452 218.283 91.242 217.587 91.242C217.095 91.242 216.657 91.35 216.273 91.566C215.901 91.782 215.607 92.1 215.391 92.52C215.187 92.94 215.085 93.474 215.085 94.122V99H212.835V89.388H214.977V91.944L214.599 91.188C214.923 90.564 215.391 90.09 216.003 89.766C216.627 89.442 217.335 89.28 218.127 89.28C219.027 89.28 219.807 89.502 220.467 89.946C221.139 90.39 221.583 91.062 221.799 91.962L220.917 91.656C221.229 90.936 221.745 90.36 222.465 89.928C223.185 89.496 224.019 89.28 224.967 89.28Z" fill="#D7FFE7"/>
<path d="M231.785 99V89.388H234.035V99H231.785ZM232.919 87.804C232.499 87.804 232.151 87.672 231.875 87.408C231.611 87.144 231.479 86.826 231.479 86.454C231.479 86.07 231.611 85.752 231.875 85.5C232.151 85.236 232.499 85.104 232.919 85.104C233.339 85.104 233.681 85.23 233.945 85.482C234.221 85.722 234.359 86.028 234.359 86.4C234.359 86.796 234.227 87.132 233.963 87.408C233.699 87.672 233.351 87.804 232.919 87.804Z" fill="#D7FFE7"/>
<path d="M242.91 99V97.056L242.784 96.642V93.24C242.784 92.58 242.586 92.07 242.19 91.71C241.794 91.338 241.194 91.152 240.39 91.152C239.85 91.152 239.316 91.236 238.788 91.404C238.272 91.572 237.834 91.806 237.474 92.106L236.592 90.468C237.108 90.072 237.72 89.778 238.428 89.586C239.148 89.382 239.892 89.28 240.66 89.28C242.052 89.28 243.126 89.616 243.882 90.288C244.65 90.948 245.034 91.974 245.034 93.366V99H242.91ZM239.886 99.126C239.166 99.126 238.536 99.006 237.996 98.766C237.456 98.514 237.036 98.172 236.736 97.74C236.448 97.296 236.304 96.798 236.304 96.246C236.304 95.706 236.43 95.22 236.682 94.788C236.946 94.356 237.372 94.014 237.96 93.762C238.548 93.51 239.328 93.384 240.3 93.384H243.09V94.878H240.462C239.694 94.878 239.178 95.004 238.914 95.256C238.65 95.496 238.518 95.796 238.518 96.156C238.518 96.564 238.68 96.888 239.004 97.128C239.328 97.368 239.778 97.488 240.354 97.488C240.906 97.488 241.398 97.362 241.83 97.11C242.274 96.858 242.592 96.486 242.784 95.994L243.162 97.344C242.946 97.908 242.556 98.346 241.992 98.658C241.44 98.97 240.738 99.126 239.886 99.126Z" fill="#D7FFE7"/>
<path d="M132 101C136.971 101 141 96.9706 141 92C141 87.0294 136.971 83 132 83C127.029 83 123 87.0294 123 92C123 96.9706 127.029 101 132 101Z" fill="#32BA7C"/>
<path d="M129.7 96.0599L134.328 100.688C138.161 99.6656 141 96.1735 141 92C141 91.9148 141 91.8296 141 91.7445L137.366 88.3943L129.7 96.0599Z" fill="#0AA06E"/>
<path d="M132.227 94.0158C132.625 94.4133 132.625 95.0946 132.227 95.4921L131.404 96.3155C131.006 96.7129 130.325 96.7129 129.927 96.3155L126.322 92.6814C125.924 92.2839 125.924 91.6025 126.322 91.2051L127.145 90.3817C127.543 89.9842 128.224 89.9842 128.621 90.3817L132.227 94.0158Z" fill="white"/>
<path d="M135.379 87.7413C135.776 87.3439 136.457 87.3439 136.855 87.7413L137.678 88.5647C138.076 88.9622 138.076 89.6435 137.678 90.041L131.432 96.2587C131.035 96.6562 130.353 96.6562 129.956 96.2587L129.133 95.4353C128.735 95.0379 128.735 94.3565 129.133 93.959L135.379 87.7413Z" fill="white"/>
<path d="M158.598 126.18C157.614 126.18 156.672 126.042 155.772 125.766C154.872 125.478 154.158 125.112 153.63 124.668L154.44 122.85C154.944 123.246 155.568 123.576 156.312 123.84C157.056 124.104 157.818 124.236 158.598 124.236C159.258 124.236 159.792 124.164 160.2 124.02C160.608 123.876 160.908 123.684 161.1 123.444C161.292 123.192 161.388 122.91 161.388 122.598C161.388 122.214 161.25 121.908 160.974 121.68C160.698 121.44 160.338 121.254 159.894 121.122C159.462 120.978 158.976 120.846 158.436 120.726C157.908 120.606 157.374 120.468 156.834 120.312C156.306 120.144 155.82 119.934 155.376 119.682C154.944 119.418 154.59 119.07 154.314 118.638C154.038 118.206 153.9 117.654 153.9 116.982C153.9 116.298 154.08 115.674 154.44 115.11C154.812 114.534 155.37 114.078 156.114 113.742C156.87 113.394 157.824 113.22 158.976 113.22C159.732 113.22 160.482 113.316 161.226 113.508C161.97 113.7 162.618 113.976 163.17 114.336L162.432 116.154C161.868 115.818 161.286 115.572 160.686 115.416C160.086 115.248 159.51 115.164 158.958 115.164C158.31 115.164 157.782 115.242 157.374 115.398C156.978 115.554 156.684 115.758 156.492 116.01C156.312 116.262 156.222 116.55 156.222 116.874C156.222 117.258 156.354 117.57 156.618 117.81C156.894 118.038 157.248 118.218 157.68 118.35C158.124 118.482 158.616 118.614 159.156 118.746C159.696 118.866 160.23 119.004 160.758 119.16C161.298 119.316 161.784 119.52 162.216 119.772C162.66 120.024 163.014 120.366 163.278 120.798C163.554 121.23 163.692 121.776 163.692 122.436C163.692 123.108 163.506 123.732 163.134 124.308C162.774 124.872 162.216 125.328 161.46 125.676C160.704 126.012 159.75 126.18 158.598 126.18Z" fill="#D7FFE7"/>
<path d="M169.864 126.126C169.048 126.126 168.328 125.976 167.704 125.676C167.08 125.364 166.594 124.896 166.246 124.272C165.898 123.636 165.724 122.838 165.724 121.878V116.388H167.974V121.572C167.974 122.436 168.166 123.084 168.55 123.516C168.946 123.936 169.504 124.146 170.224 124.146C170.752 124.146 171.208 124.038 171.592 123.822C171.988 123.606 172.294 123.282 172.51 122.85C172.738 122.418 172.852 121.884 172.852 121.248V116.388H175.102V126H172.96V123.408L173.338 124.2C173.014 124.824 172.54 125.304 171.916 125.64C171.292 125.964 170.608 126.126 169.864 126.126Z" fill="#D7FFE7"/>
<path d="M183.376 126.126C182.596 126.126 181.882 125.946 181.234 125.586C180.598 125.226 180.088 124.686 179.704 123.966C179.332 123.234 179.146 122.31 179.146 121.194C179.146 120.066 179.326 119.142 179.686 118.422C180.058 117.702 180.562 117.168 181.198 116.82C181.834 116.46 182.56 116.28 183.376 116.28C184.324 116.28 185.158 116.484 185.878 116.892C186.61 117.3 187.186 117.87 187.606 118.602C188.038 119.334 188.254 120.198 188.254 121.194C188.254 122.19 188.038 123.06 187.606 123.804C187.186 124.536 186.61 125.106 185.878 125.514C185.158 125.922 184.324 126.126 183.376 126.126ZM178.048 129.492V116.388H180.19V118.656L180.118 121.212L180.298 123.768V129.492H178.048ZM183.124 124.2C183.664 124.2 184.144 124.08 184.564 123.84C184.996 123.6 185.338 123.252 185.59 122.796C185.842 122.34 185.968 121.806 185.968 121.194C185.968 120.57 185.842 120.036 185.59 119.592C185.338 119.136 184.996 118.788 184.564 118.548C184.144 118.308 183.664 118.188 183.124 118.188C182.584 118.188 182.098 118.308 181.666 118.548C181.234 118.788 180.892 119.136 180.64 119.592C180.388 120.036 180.262 120.57 180.262 121.194C180.262 121.806 180.388 122.34 180.64 122.796C180.892 123.252 181.234 123.6 181.666 123.84C182.098 124.08 182.584 124.2 183.124 124.2Z" fill="#D7FFE7"/>
<path d="M194.906 126.126C193.838 126.126 192.902 125.916 192.098 125.496C191.306 125.064 190.688 124.476 190.244 123.732C189.812 122.988 189.596 122.142 189.596 121.194C189.596 120.234 189.806 119.388 190.226 118.656C190.658 117.912 191.246 117.33 191.99 116.91C192.746 116.49 193.604 116.28 194.564 116.28C195.5 116.28 196.334 116.484 197.066 116.892C197.798 117.3 198.374 117.876 198.794 118.62C199.214 119.364 199.424 120.24 199.424 121.248C199.424 121.344 199.418 121.452 199.406 121.572C199.406 121.692 199.4 121.806 199.388 121.914H191.378V120.42H198.2L197.318 120.888C197.33 120.336 197.216 119.85 196.976 119.43C196.736 119.01 196.406 118.68 195.986 118.44C195.578 118.2 195.104 118.08 194.564 118.08C194.012 118.08 193.526 118.2 193.106 118.44C192.698 118.68 192.374 119.016 192.134 119.448C191.906 119.868 191.792 120.366 191.792 120.942V121.302C191.792 121.878 191.924 122.388 192.188 122.832C192.452 123.276 192.824 123.618 193.304 123.858C193.784 124.098 194.336 124.218 194.96 124.218C195.5 124.218 195.986 124.134 196.418 123.966C196.85 123.798 197.234 123.534 197.57 123.174L198.776 124.56C198.344 125.064 197.798 125.454 197.138 125.73C196.49 125.994 195.746 126.126 194.906 126.126Z" fill="#D7FFE7"/>
<path d="M201.585 126V116.388H203.727V119.034L203.475 118.26C203.763 117.612 204.213 117.12 204.825 116.784C205.449 116.448 206.223 116.28 207.147 116.28V118.422C207.051 118.398 206.961 118.386 206.877 118.386C206.793 118.374 206.709 118.368 206.625 118.368C205.773 118.368 205.095 118.62 204.591 119.124C204.087 119.616 203.835 120.354 203.835 121.338V126H201.585Z" fill="#D7FFE7"/>
<path d="M221.188 116.28C221.956 116.28 222.634 116.43 223.222 116.73C223.822 117.03 224.29 117.492 224.626 118.116C224.962 118.728 225.13 119.52 225.13 120.492V126H222.88V120.78C222.88 119.928 222.694 119.292 222.322 118.872C221.95 118.452 221.416 118.242 220.72 118.242C220.228 118.242 219.79 118.35 219.406 118.566C219.034 118.782 218.74 119.1 218.524 119.52C218.32 119.94 218.218 120.474 218.218 121.122V126H215.968V120.78C215.968 119.928 215.782 119.292 215.41 118.872C215.038 118.452 214.504 118.242 213.808 118.242C213.316 118.242 212.878 118.35 212.494 118.566C212.122 118.782 211.828 119.1 211.612 119.52C211.408 119.94 211.306 120.474 211.306 121.122V126H209.056V116.388H211.198V118.944L210.82 118.188C211.144 117.564 211.612 117.09 212.224 116.766C212.848 116.442 213.556 116.28 214.348 116.28C215.248 116.28 216.028 116.502 216.688 116.946C217.36 117.39 217.804 118.062 218.02 118.962L217.138 118.656C217.45 117.936 217.966 117.36 218.686 116.928C219.406 116.496 220.24 116.28 221.188 116.28Z" fill="#D7FFE7"/>
<path d="M232.541 126.126C231.473 126.126 230.537 125.916 229.733 125.496C228.941 125.064 228.323 124.476 227.879 123.732C227.447 122.988 227.231 122.142 227.231 121.194C227.231 120.234 227.441 119.388 227.861 118.656C228.293 117.912 228.881 117.33 229.625 116.91C230.381 116.49 231.239 116.28 232.199 116.28C233.135 116.28 233.969 116.484 234.701 116.892C235.433 117.3 236.009 117.876 236.429 118.62C236.849 119.364 237.059 120.24 237.059 121.248C237.059 121.344 237.053 121.452 237.041 121.572C237.041 121.692 237.035 121.806 237.023 121.914H229.013V120.42H235.835L234.953 120.888C234.965 120.336 234.851 119.85 234.611 119.43C234.371 119.01 234.041 118.68 233.621 118.44C233.213 118.2 232.739 118.08 232.199 118.08C231.647 118.08 231.161 118.2 230.741 118.44C230.333 118.68 230.009 119.016 229.769 119.448C229.541 119.868 229.427 120.366 229.427 120.942V121.302C229.427 121.878 229.559 122.388 229.823 122.832C230.087 123.276 230.459 123.618 230.939 123.858C231.419 124.098 231.971 124.218 232.595 124.218C233.135 124.218 233.621 124.134 234.053 123.966C234.485 123.798 234.869 123.534 235.205 123.174L236.411 124.56C235.979 125.064 235.433 125.454 234.773 125.73C234.125 125.994 233.381 126.126 232.541 126.126Z" fill="#D7FFE7"/>
<path d="M239.22 126V116.388H241.362V119.034L241.11 118.26C241.398 117.612 241.848 117.12 242.46 116.784C243.084 116.448 243.858 116.28 244.782 116.28V118.422C244.686 118.398 244.596 118.386 244.512 118.386C244.428 118.374 244.344 118.368 244.26 118.368C243.408 118.368 242.73 118.62 242.226 119.124C241.722 119.616 241.47 120.354 241.47 121.338V126H239.22Z" fill="#D7FFE7"/>
<path d="M251.013 126.126C250.005 126.126 249.105 125.916 248.313 125.496C247.533 125.064 246.921 124.476 246.477 123.732C246.033 122.988 245.811 122.142 245.811 121.194C245.811 120.234 246.033 119.388 246.477 118.656C246.921 117.912 247.533 117.33 248.313 116.91C249.105 116.49 250.005 116.28 251.013 116.28C251.949 116.28 252.771 116.472 253.479 116.856C254.199 117.228 254.745 117.78 255.117 118.512L253.389 119.52C253.101 119.064 252.747 118.728 252.327 118.512C251.919 118.296 251.475 118.188 250.995 118.188C250.443 118.188 249.945 118.308 249.501 118.548C249.057 118.788 248.709 119.136 248.457 119.592C248.205 120.036 248.079 120.57 248.079 121.194C248.079 121.818 248.205 122.358 248.457 122.814C248.709 123.258 249.057 123.6 249.501 123.84C249.945 124.08 250.443 124.2 250.995 124.2C251.475 124.2 251.919 124.092 252.327 123.876C252.747 123.66 253.101 123.324 253.389 122.868L255.117 123.876C254.745 124.596 254.199 125.154 253.479 125.55C252.771 125.934 251.949 126.126 251.013 126.126Z" fill="#D7FFE7"/>
<path d="M262.984 126V124.056L262.858 123.642V120.24C262.858 119.58 262.66 119.07 262.264 118.71C261.868 118.338 261.268 118.152 260.464 118.152C259.924 118.152 259.39 118.236 258.862 118.404C258.346 118.572 257.908 118.806 257.548 119.106L256.666 117.468C257.182 117.072 257.794 116.778 258.502 116.586C259.222 116.382 259.966 116.28 260.734 116.28C262.126 116.28 263.2 116.616 263.956 117.288C264.724 117.948 265.108 118.974 265.108 120.366V126H262.984ZM259.96 126.126C259.24 126.126 258.61 126.006 258.07 125.766C257.53 125.514 257.11 125.172 256.81 124.74C256.522 124.296 256.378 123.798 256.378 123.246C256.378 122.706 256.504 122.22 256.756 121.788C257.02 121.356 257.446 121.014 258.034 120.762C258.622 120.51 259.402 120.384 260.374 120.384H263.164V121.878H260.536C259.768 121.878 259.252 122.004 258.988 122.256C258.724 122.496 258.592 122.796 258.592 123.156C258.592 123.564 258.754 123.888 259.078 124.128C259.402 124.368 259.852 124.488 260.428 124.488C260.98 124.488 261.472 124.362 261.904 124.11C262.348 123.858 262.666 123.486 262.858 122.994L263.236 124.344C263.02 124.908 262.63 125.346 262.066 125.658C261.514 125.97 260.812 126.126 259.96 126.126Z" fill="#D7FFE7"/>
<path d="M272.081 126.126C271.157 126.126 270.323 125.922 269.579 125.514C268.847 125.094 268.271 124.518 267.851 123.786C267.431 123.054 267.221 122.19 267.221 121.194C267.221 120.198 267.431 119.334 267.851 118.602C268.271 117.87 268.847 117.3 269.579 116.892C270.323 116.484 271.157 116.28 272.081 116.28C272.885 116.28 273.605 116.46 274.241 116.82C274.877 117.168 275.381 117.702 275.753 118.422C276.125 119.142 276.311 120.066 276.311 121.194C276.311 122.31 276.131 123.234 275.771 123.966C275.411 124.686 274.913 125.226 274.277 125.586C273.641 125.946 272.909 126.126 272.081 126.126ZM272.351 124.2C272.891 124.2 273.371 124.08 273.791 123.84C274.223 123.6 274.565 123.252 274.817 122.796C275.081 122.34 275.213 121.806 275.213 121.194C275.213 120.57 275.081 120.036 274.817 119.592C274.565 119.136 274.223 118.788 273.791 118.548C273.371 118.308 272.891 118.188 272.351 118.188C271.811 118.188 271.325 118.308 270.893 118.548C270.473 118.788 270.131 119.136 269.867 119.592C269.615 120.036 269.489 120.57 269.489 121.194C269.489 121.806 269.615 122.34 269.867 122.796C270.131 123.252 270.473 123.6 270.893 123.84C271.325 124.08 271.811 124.2 272.351 124.2ZM275.267 126V123.732L275.357 121.176L275.177 118.62V112.644H277.409V126H275.267Z" fill="#D7FFE7"/>
<path d="M284.691 126.126C283.707 126.126 282.831 125.916 282.063 125.496C281.295 125.064 280.689 124.476 280.245 123.732C279.801 122.988 279.579 122.142 279.579 121.194C279.579 120.234 279.801 119.388 280.245 118.656C280.689 117.912 281.295 117.33 282.063 116.91C282.831 116.49 283.707 116.28 284.691 116.28C285.687 116.28 286.569 116.49 287.337 116.91C288.117 117.33 288.723 117.906 289.155 118.638C289.599 119.37 289.821 120.222 289.821 121.194C289.821 122.142 289.599 122.988 289.155 123.732C288.723 124.476 288.117 125.064 287.337 125.496C286.569 125.916 285.687 126.126 284.691 126.126ZM284.691 124.2C285.243 124.2 285.735 124.08 286.167 123.84C286.599 123.6 286.935 123.252 287.175 122.796C287.427 122.34 287.553 121.806 287.553 121.194C287.553 120.57 287.427 120.036 287.175 119.592C286.935 119.136 286.599 118.788 286.167 118.548C285.735 118.308 285.249 118.188 284.709 118.188C284.157 118.188 283.665 118.308 283.233 118.548C282.813 118.788 282.477 119.136 282.225 119.592C281.973 120.036 281.847 120.57 281.847 121.194C281.847 121.806 281.973 122.34 282.225 122.796C282.477 123.252 282.813 123.6 283.233 123.84C283.665 124.08 284.151 124.2 284.691 124.2Z" fill="#D7FFE7"/>
<path d="M132 129C136.971 129 141 124.971 141 120C141 115.029 136.971 111 132 111C127.029 111 123 115.029 123 120C123 124.971 127.029 129 132 129Z" fill="#32BA7C"/>
<path d="M129.7 124.06L134.328 128.688C138.161 127.666 141 124.174 141 120C141 119.915 141 119.83 141 119.744L137.366 116.394L129.7 124.06Z" fill="#0AA06E"/>
<path d="M132.227 122.016C132.625 122.413 132.625 123.095 132.227 123.492L131.404 124.315C131.006 124.713 130.325 124.713 129.927 124.315L126.322 120.681C125.924 120.284 125.924 119.603 126.322 119.205L127.145 118.382C127.543 117.984 128.224 117.984 128.621 118.382L132.227 122.016Z" fill="white"/>
<path d="M135.379 115.741C135.776 115.344 136.457 115.344 136.855 115.741L137.678 116.565C138.076 116.962 138.076 117.644 137.678 118.041L131.432 124.259C131.035 124.656 130.353 124.656 129.956 124.259L129.133 123.435C128.735 123.038 128.735 122.356 129.133 121.959L135.379 115.741Z" fill="white"/>
<path d="M154.692 155V142.4H160.596C162.108 142.4 163.26 142.7 164.052 143.3C164.844 143.888 165.24 144.68 165.24 145.676C165.24 146.348 165.084 146.924 164.772 147.404C164.46 147.872 164.04 148.238 163.512 148.502C162.996 148.754 162.432 148.88 161.82 148.88L162.144 148.232C162.852 148.232 163.488 148.364 164.052 148.628C164.616 148.88 165.06 149.252 165.384 149.744C165.72 150.236 165.888 150.848 165.888 151.58C165.888 152.66 165.474 153.5 164.646 154.1C163.818 154.7 162.588 155 160.956 155H154.692ZM157.032 153.164H160.812C161.688 153.164 162.36 153.02 162.828 152.732C163.296 152.444 163.53 151.982 163.53 151.346C163.53 150.722 163.296 150.266 162.828 149.978C162.36 149.678 161.688 149.528 160.812 149.528H156.852V147.71H160.344C161.16 147.71 161.784 147.566 162.216 147.278C162.66 146.99 162.882 146.558 162.882 145.982C162.882 145.394 162.66 144.956 162.216 144.668C161.784 144.38 161.16 144.236 160.344 144.236H157.032V153.164Z" fill="#FFD0D0"/>
<path d="M172.687 155.126C171.619 155.126 170.683 154.916 169.879 154.496C169.087 154.064 168.469 153.476 168.025 152.732C167.593 151.988 167.377 151.142 167.377 150.194C167.377 149.234 167.587 148.388 168.007 147.656C168.439 146.912 169.027 146.33 169.771 145.91C170.527 145.49 171.385 145.28 172.345 145.28C173.281 145.28 174.115 145.484 174.847 145.892C175.579 146.3 176.155 146.876 176.575 147.62C176.995 148.364 177.205 149.24 177.205 150.248C177.205 150.344 177.199 150.452 177.187 150.572C177.187 150.692 177.181 150.806 177.169 150.914H169.159V149.42H175.981L175.099 149.888C175.111 149.336 174.997 148.85 174.757 148.43C174.517 148.01 174.187 147.68 173.767 147.44C173.359 147.2 172.885 147.08 172.345 147.08C171.793 147.08 171.307 147.2 170.887 147.44C170.479 147.68 170.155 148.016 169.915 148.448C169.687 148.868 169.573 149.366 169.573 149.942V150.302C169.573 150.878 169.705 151.388 169.969 151.832C170.233 152.276 170.605 152.618 171.085 152.858C171.565 153.098 172.117 153.218 172.741 153.218C173.281 153.218 173.767 153.134 174.199 152.966C174.631 152.798 175.015 152.534 175.351 152.174L176.557 153.56C176.125 154.064 175.579 154.454 174.919 154.73C174.271 154.994 173.527 155.126 172.687 155.126Z" fill="#FFD0D0"/>
<path d="M179.367 155V141.644H181.617V155H179.367Z" fill="#FFD0D0"/>
<path d="M188.89 155.126C187.906 155.126 187.03 154.916 186.262 154.496C185.494 154.064 184.888 153.476 184.444 152.732C184 151.988 183.778 151.142 183.778 150.194C183.778 149.234 184 148.388 184.444 147.656C184.888 146.912 185.494 146.33 186.262 145.91C187.03 145.49 187.906 145.28 188.89 145.28C189.886 145.28 190.768 145.49 191.536 145.91C192.316 146.33 192.922 146.906 193.354 147.638C193.798 148.37 194.02 149.222 194.02 150.194C194.02 151.142 193.798 151.988 193.354 152.732C192.922 153.476 192.316 154.064 191.536 154.496C190.768 154.916 189.886 155.126 188.89 155.126ZM188.89 153.2C189.442 153.2 189.934 153.08 190.366 152.84C190.798 152.6 191.134 152.252 191.374 151.796C191.626 151.34 191.752 150.806 191.752 150.194C191.752 149.57 191.626 149.036 191.374 148.592C191.134 148.136 190.798 147.788 190.366 147.548C189.934 147.308 189.448 147.188 188.908 147.188C188.356 147.188 187.864 147.308 187.432 147.548C187.012 147.788 186.676 148.136 186.424 148.592C186.172 149.036 186.046 149.57 186.046 150.194C186.046 150.806 186.172 151.34 186.424 151.796C186.676 152.252 187.012 152.6 187.432 152.84C187.864 153.08 188.35 153.2 188.89 153.2Z" fill="#FFD0D0"/>
<path d="M210.218 142.4H212.558V155H210.218V142.4ZM203.702 155H201.362V142.4H203.702V155ZM210.398 149.6H203.504V147.602H210.398V149.6Z" fill="#FFD0D0"/>
<path d="M220.038 155.126C219.054 155.126 218.178 154.916 217.41 154.496C216.642 154.064 216.036 153.476 215.592 152.732C215.148 151.988 214.926 151.142 214.926 150.194C214.926 149.234 215.148 148.388 215.592 147.656C216.036 146.912 216.642 146.33 217.41 145.91C218.178 145.49 219.054 145.28 220.038 145.28C221.034 145.28 221.916 145.49 222.684 145.91C223.464 146.33 224.07 146.906 224.502 147.638C224.946 148.37 225.168 149.222 225.168 150.194C225.168 151.142 224.946 151.988 224.502 152.732C224.07 153.476 223.464 154.064 222.684 154.496C221.916 154.916 221.034 155.126 220.038 155.126ZM220.038 153.2C220.59 153.2 221.082 153.08 221.514 152.84C221.946 152.6 222.282 152.252 222.522 151.796C222.774 151.34 222.9 150.806 222.9 150.194C222.9 149.57 222.774 149.036 222.522 148.592C222.282 148.136 221.946 147.788 221.514 147.548C221.082 147.308 220.596 147.188 220.056 147.188C219.504 147.188 219.012 147.308 218.58 147.548C218.16 147.788 217.824 148.136 217.572 148.592C217.32 149.036 217.194 149.57 217.194 150.194C217.194 150.806 217.32 151.34 217.572 151.796C217.824 152.252 218.16 152.6 218.58 152.84C219.012 153.08 219.498 153.2 220.038 153.2Z" fill="#FFD0D0"/>
<path d="M227.32 155V145.388H229.462V148.034L229.21 147.26C229.498 146.612 229.948 146.12 230.56 145.784C231.184 145.448 231.958 145.28 232.882 145.28V147.422C232.786 147.398 232.696 147.386 232.612 147.386C232.528 147.374 232.444 147.368 232.36 147.368C231.508 147.368 230.83 147.62 230.326 148.124C229.822 148.616 229.57 149.354 229.57 150.338V155H227.32Z" fill="#FFD0D0"/>
<path d="M234.79 155V145.388H237.04V155H234.79ZM235.924 143.804C235.504 143.804 235.156 143.672 234.88 143.408C234.616 143.144 234.484 142.826 234.484 142.454C234.484 142.07 234.616 141.752 234.88 141.5C235.156 141.236 235.504 141.104 235.924 141.104C236.344 141.104 236.686 141.23 236.95 141.482C237.226 141.722 237.364 142.028 237.364 142.4C237.364 142.796 237.232 143.132 236.968 143.408C236.704 143.672 236.356 143.804 235.924 143.804Z" fill="#FFD0D0"/>
<path d="M239.202 155V153.578L245.124 146.414L245.538 147.188H239.31V145.388H247.338V146.81L241.416 153.974L240.966 153.2H247.5V155H239.202Z" fill="#FFD0D0"/>
<path d="M253.753 155.126C252.769 155.126 251.893 154.916 251.125 154.496C250.357 154.064 249.751 153.476 249.307 152.732C248.863 151.988 248.641 151.142 248.641 150.194C248.641 149.234 248.863 148.388 249.307 147.656C249.751 146.912 250.357 146.33 251.125 145.91C251.893 145.49 252.769 145.28 253.753 145.28C254.749 145.28 255.631 145.49 256.399 145.91C257.179 146.33 257.785 146.906 258.217 147.638C258.661 148.37 258.883 149.222 258.883 150.194C258.883 151.142 258.661 151.988 258.217 152.732C257.785 153.476 257.179 154.064 256.399 154.496C255.631 154.916 254.749 155.126 253.753 155.126ZM253.753 153.2C254.305 153.2 254.797 153.08 255.229 152.84C255.661 152.6 255.997 152.252 256.237 151.796C256.489 151.34 256.615 150.806 256.615 150.194C256.615 149.57 256.489 149.036 256.237 148.592C255.997 148.136 255.661 147.788 255.229 147.548C254.797 147.308 254.311 147.188 253.771 147.188C253.219 147.188 252.727 147.308 252.295 147.548C251.875 147.788 251.539 148.136 251.287 148.592C251.035 149.036 250.909 149.57 250.909 150.194C250.909 150.806 251.035 151.34 251.287 151.796C251.539 152.252 251.875 152.6 252.295 152.84C252.727 153.08 253.213 153.2 253.753 153.2Z" fill="#FFD0D0"/>
<path d="M266.489 145.28C267.257 145.28 267.941 145.43 268.541 145.73C269.153 146.03 269.633 146.492 269.981 147.116C270.329 147.728 270.503 148.52 270.503 149.492V155H268.253V149.78C268.253 148.928 268.049 148.292 267.641 147.872C267.245 147.452 266.687 147.242 265.967 147.242C265.439 147.242 264.971 147.35 264.563 147.566C264.155 147.782 263.837 148.106 263.609 148.538C263.393 148.958 263.285 149.492 263.285 150.14V155H261.035V145.388H263.177V147.98L262.799 147.188C263.135 146.576 263.621 146.108 264.257 145.784C264.905 145.448 265.649 145.28 266.489 145.28Z" fill="#FFD0D0"/>
<path d="M274.077 155.126C273.669 155.126 273.321 154.988 273.033 154.712C272.745 154.424 272.601 154.064 272.601 153.632C272.601 153.176 272.745 152.816 273.033 152.552C273.321 152.276 273.669 152.138 274.077 152.138C274.485 152.138 274.833 152.276 275.121 152.552C275.409 152.816 275.553 153.176 275.553 153.632C275.553 154.064 275.409 154.424 275.121 154.712C274.833 154.988 274.485 155.126 274.077 155.126Z" fill="#FFD0D0"/>
<path d="M278.471 155.126C278.063 155.126 277.715 154.988 277.427 154.712C277.139 154.424 276.995 154.064 276.995 153.632C276.995 153.176 277.139 152.816 277.427 152.552C277.715 152.276 278.063 152.138 278.471 152.138C278.879 152.138 279.227 152.276 279.515 152.552C279.803 152.816 279.947 153.176 279.947 153.632C279.947 154.064 279.803 154.424 279.515 154.712C279.227 154.988 278.879 155.126 278.471 155.126Z" fill="#FFD0D0"/>
<path d="M282.866 155.126C282.458 155.126 282.11 154.988 281.822 154.712C281.534 154.424 281.39 154.064 281.39 153.632C281.39 153.176 281.534 152.816 281.822 152.552C282.11 152.276 282.458 152.138 282.866 152.138C283.274 152.138 283.622 152.276 283.91 152.552C284.198 152.816 284.342 153.176 284.342 153.632C284.342 154.064 284.198 154.424 283.91 154.712C283.622 154.988 283.274 155.126 282.866 155.126Z" fill="#FFD0D0"/>
<path d="M33.155 79.1365C31.7035 79.1365 30.5193 79.9783 30.5193 81.0048V100.664L43.3725 100.818L43.3888 89.3286H45.813C46.37 89.3286 46.8218 89.6447 46.8218 90.0397V98.6982C46.8218 99.8593 48.3614 100.873 50.1084 100.873C51.7582 100.873 53.59 99.9458 53.59 98.6982C53.5647 98.4077 52.2559 93.2465 52.2559 93.2465C52.2559 93.2345 51.9793 91.7964 51.9793 91.7964V85.2015C51.9793 84.4952 51.6457 83.9125 50.9706 83.4307L46.6754 80.3911C46.3801 80.3911 45.5528 80.9767 45.5528 80.9767C45.5528 81.1892 47.6842 82.6917 47.6842 82.6917L47.6191 85.2572C47.6191 86.164 48.6587 86.9025 49.9457 86.9025H50.5314L50.3199 91.7965L50.6127 93.4836L51.9143 98.4332C51.9649 99.2382 50.927 99.716 50.1084 99.716C49.3531 99.716 48.4651 99.2696 48.4651 98.6982L48.4814 90.0257C48.4814 88.9693 47.2658 88.1155 45.7806 88.1155H43.1936C43.3751 88.1066 43.3726 82.42 43.3726 81.2139V81.0048C43.3726 79.9783 42.2005 79.1364 40.7532 79.1364L33.155 79.1365ZM33.155 80.4889H40.7531C41.1582 80.4889 41.469 80.7205 41.469 81.0048V85.5363C41.469 85.8236 41.1582 86.0382 40.7531 86.0382H33.155C32.7457 86.0382 32.4392 85.8236 32.4392 85.5363V81.0048C32.4392 80.7205 32.7457 80.4889 33.155 80.4889ZM49.002 84.1281C49.002 84.1281 49.6473 84.2237 49.7992 84.2536C50.1114 84.3105 50.3114 84.6435 50.3198 84.9368C50.3283 85.2331 50.3198 86.122 50.3198 86.122C49.362 85.9723 49.002 85.6225 49.002 85.2993V84.1281Z" fill="white"/>
<path d="M8.02884 90.0048C8.02884 90.9099 7.60929 91.7779 6.86249 92.4179C6.1157 93.0579 5.10282 93.4174 4.04669 93.4174C2.99056 93.4174 1.97768 93.0579 1.23089 92.4179C0.484089 91.7779 0.0645424 90.9099 0.0645424 90.0048C0.0645424 89.0998 0.484089 88.2317 1.23089 87.5918C1.97768 86.9518 2.99056 86.5922 4.04669 86.5922C5.10282 86.5922 6.1157 86.9518 6.86249 87.5918C7.60929 88.2317 8.02884 89.0998 8.02884 90.0048Z" fill="white"/>
<path d="M105.131 87.7184H85.7081C84.9693 87.7184 84.3703 88.7417 84.3703 90.004C84.3703 91.2663 84.9693 92.2896 85.7081 92.2896H105.131C105.87 92.2896 106.469 91.2663 106.469 90.004C106.469 88.7417 105.87 87.7184 105.131 87.7184Z" fill="white"/>
<path d="M66.4168 24.2022L56.7423 34.1147C56.3743 34.4917 56.5639 35.147 57.1656 35.5784C57.7674 36.0097 58.5535 36.0537 58.9215 35.6766L68.596 25.7642C68.964 25.3871 68.7744 24.7318 68.1727 24.3005C67.5709 23.8692 66.7848 23.8251 66.4168 24.2022Z" fill="#FF0000"/>
<path d="M52.5217 13.9547L42.7642 28.3473C42.3931 28.8947 43.1246 29.8526 44.3983 30.4867C45.6719 31.1208 47.0052 31.1911 47.3764 30.6436L57.1338 16.251C57.505 15.7036 56.7734 14.7457 55.4998 14.1116C54.2262 13.4775 52.8928 13.4072 52.5217 13.9547Z" fill="white"/>
<path d="M57.1285 163.76L47.3719 149.367C47.0008 148.82 45.6674 148.89 44.3937 149.524C43.1201 150.158 42.3884 151.116 42.7596 151.663L52.5161 166.056C52.8873 166.604 54.2206 166.534 55.4943 165.9C56.7679 165.266 57.4996 164.308 57.1285 163.76Z" fill="white"/>
<path d="M90.2306 44.6781L73.414 53.0076C72.7744 53.3244 72.8533 54.4672 73.5904 55.5601C74.3275 56.653 75.4436 57.2821 76.0833 56.9653L92.8998 48.6358C93.5395 48.319 93.4605 47.1762 92.7234 46.0833C91.9864 44.9904 90.8703 44.3613 90.2306 44.6781Z" fill="white"/>
<path d="M92.8439 131.46L76.0385 123.114C75.3993 122.797 74.2824 123.425 73.5438 124.517C72.8053 125.609 72.7248 126.752 73.364 127.069L90.1694 135.415C90.8086 135.733 91.9255 135.105 92.6641 134.013C93.4026 132.921 93.4831 131.778 92.8439 131.46Z" fill="white"/>
<path d="M79.0098 34.6936L67.4425 42.9837C67.0025 43.299 67.0538 43.9727 67.5571 44.4885C68.0603 45.0042 68.825 45.1666 69.265 44.8513L80.8323 36.5612C81.2723 36.2459 81.221 35.5721 80.7177 35.0564C80.2145 34.5407 79.4498 34.3783 79.0098 34.6936Z" fill="#FF0000"/>
<path d="M96.4081 59.6463L82.2529 64.1004C81.7144 64.2698 81.4971 64.9188 81.7675 65.5499C82.0379 66.181 82.6936 66.5553 83.2321 66.3859L97.3873 61.9318C97.9258 61.7623 98.1431 61.1134 97.8727 60.4823C97.6023 59.8512 96.9466 59.4769 96.4081 59.6463Z" fill="#FF0000"/>
<path d="M101.214 74.1101L86.3631 76.3506C85.7982 76.4358 85.4505 77.0416 85.5865 77.7038C85.7226 78.3659 86.2907 78.8336 86.8556 78.7483L101.707 76.5078C102.271 76.4226 102.619 75.8167 102.483 75.1546C102.347 74.4925 101.779 74.0248 101.214 74.1101Z" fill="#FF0000"/>
<path d="M97.4688 117.881L83.3007 113.457C82.7618 113.289 82.1072 113.665 81.8386 114.296C81.57 114.928 81.7892 115.577 82.3281 115.745L96.4962 120.169C97.0352 120.337 97.6898 119.962 97.9583 119.33C98.2269 118.698 98.0078 118.05 97.4688 117.881Z" fill="#FF0000"/>
<path d="M101.677 103.668L86.8313 101.403C86.2666 101.317 85.6973 101.784 85.5598 102.446C85.4223 103.107 85.7686 103.714 86.3333 103.8L101.179 106.065C101.744 106.152 102.313 105.685 102.451 105.023C102.588 104.361 102.242 103.755 101.677 103.668Z" fill="#FF0000"/>
<path d="M80.6378 143.654L69.1006 135.333C68.6618 135.016 67.8965 135.177 67.3914 135.691C66.8862 136.206 66.8325 136.879 67.2713 137.196L78.8085 145.517C79.2473 145.833 80.0126 145.673 80.5178 145.158C81.0229 144.644 81.0767 143.97 80.6378 143.654Z" fill="#FF0000"/>
<path d="M68.4282 154.365L58.7794 144.434C58.4124 144.056 57.6262 144.099 57.0233 144.529C56.4204 144.959 56.2292 145.614 56.5962 145.992L66.245 155.923C66.612 156.3 67.3982 156.258 68.0011 155.828C68.604 155.398 68.7952 154.743 68.4282 154.365Z" fill="#FF0000"/>
<path d="M34.837 17.8467C34.871 17.4801 34.8989 17.0944 34.9205 16.6897L34.9896 15.4424C35.0138 15.0198 35.0296 14.6774 35.0369 14.415C35.0199 14.462 34.9783 14.5042 34.9122 14.5417C34.846 14.5792 34.6633 14.6648 34.3641 14.7984C34.3764 14.62 34.3868 14.451 34.3951 14.2915C34.4035 14.1319 34.4077 13.9969 34.4077 13.8864C34.5138 13.8345 34.6371 13.7721 34.7773 13.6992C34.9176 13.6263 35.0006 13.5823 35.0262 13.5674C35.0519 13.5525 35.104 13.5184 35.1825 13.465C35.3228 13.4691 35.5065 13.4712 35.7334 13.4712C35.959 13.4712 36.1741 13.4692 36.3786 13.465L36.3375 13.9584C36.3275 14.0593 36.3165 14.1989 36.3046 14.3772L36.159 16.8611L36.1483 17.2241C36.1461 17.3004 36.1451 17.3777 36.1451 17.456L36.1491 17.8468C35.93 17.8426 35.7236 17.8406 35.5296 17.8406C35.305 17.8406 35.0741 17.8425 34.837 17.8467Z" fill="white"/>
<path d="M35.7008 21.8521L37.5463 18.9498L39.4724 15.9969L40.0231 15.1111C40.2283 15.1174 40.3962 15.1206 40.5267 15.1206C40.6618 15.1206 40.8529 15.1174 41.0999 15.1111L40.2442 16.5022L37.2734 21.0854L36.8033 21.852C36.5948 21.8457 36.4426 21.8425 36.3468 21.8425C36.2115 21.8425 35.9961 21.8458 35.7008 21.8521Z" fill="white"/>
<path d="M40.7379 23.8548C40.7719 23.4882 40.7998 23.1025 40.8214 22.6979L40.8905 21.4505C40.9148 21.028 40.9305 20.6855 40.9378 20.4231C40.9208 20.4701 40.8792 20.5124 40.8131 20.5498C40.7469 20.5873 40.5642 20.6729 40.265 20.8065C40.2773 20.6281 40.2877 20.4591 40.2961 20.2996C40.3044 20.14 40.3086 20.005 40.3086 19.8946C40.4148 19.8426 40.538 19.7802 40.6783 19.7073C40.8185 19.6344 40.9015 19.5905 40.9271 19.5756C40.9528 19.5607 41.0049 19.5265 41.0834 19.4731C41.2237 19.4773 41.4074 19.4793 41.6343 19.4793C41.8599 19.4793 42.075 19.4773 42.2795 19.4731L42.2384 19.9665C42.2284 20.0674 42.2174 20.207 42.2055 20.3853L42.0599 22.8692L42.0493 23.2322C42.047 23.3085 42.046 23.3858 42.046 23.4641L42.05 23.8549C41.8309 23.8508 41.6244 23.8487 41.4305 23.8487C41.2059 23.8487 40.975 23.8506 40.7379 23.8548Z" fill="white"/>
<path d="M75.5917 89.2505C75.6193 88.953 75.6419 88.6401 75.6595 88.3118L75.7155 87.2997C75.7352 86.9569 75.748 86.6791 75.7539 86.4661C75.7401 86.5043 75.7064 86.5386 75.6527 86.569C75.599 86.5994 75.4508 86.6688 75.208 86.7773C75.218 86.6325 75.2264 86.4954 75.2332 86.3659C75.24 86.2365 75.2433 86.1269 75.2433 86.0373C75.3295 85.9952 75.4295 85.9445 75.5433 85.8854C75.6571 85.8262 75.7244 85.7906 75.7452 85.7785C75.766 85.7664 75.8083 85.7387 75.872 85.6954C75.9859 85.6987 76.1349 85.7004 76.319 85.7004C76.5021 85.7004 76.6766 85.6987 76.8425 85.6954L76.8092 86.0957C76.801 86.1776 76.7921 86.2908 76.7825 86.4355L76.6643 88.4508L76.6557 88.7453C76.654 88.8072 76.6531 88.8699 76.6531 88.9334L76.6563 89.2505C76.4786 89.2472 76.3111 89.2455 76.1537 89.2455C75.9715 89.2455 75.7841 89.2472 75.5917 89.2505Z" fill="white"/>
<path d="M76.2926 92.5009L77.7899 90.1461L79.3527 87.7504L79.7995 87.0316C79.966 87.0368 80.1022 87.0393 80.2082 87.0393C80.3177 87.0393 80.4728 87.0368 80.6732 87.0316L79.979 88.1603L77.5685 91.8789L77.1871 92.5009C77.0179 92.4958 76.8944 92.4932 76.8167 92.4932C76.7069 92.4932 76.5322 92.4958 76.2926 92.5009Z" fill="white"/>
<path d="M79.1673 94.1261C79.1732 94.0249 79.1761 93.9557 79.1761 93.9187L79.1947 93.5294C79.4469 93.3356 79.6772 93.1486 79.8855 92.9684C80.0938 92.7881 80.3016 92.5997 80.5088 92.4032C80.7161 92.2067 80.8752 92.0455 80.9862 91.9195C81.0689 91.8271 81.1248 91.7565 81.1538 91.7076C81.1827 91.6587 81.2017 91.6185 81.2107 91.5872C81.2196 91.5559 81.2241 91.5252 81.2241 91.4951C81.2241 91.416 81.196 91.3512 81.1398 91.3007C81.0835 91.2503 81.0033 91.21 80.8991 91.1798C80.7949 91.1496 80.6725 91.1345 80.5319 91.1345C80.4005 91.1345 80.2536 91.145 80.0913 91.1661C79.929 91.1871 79.6968 91.2255 79.3945 91.2812L79.4512 90.9657C79.464 90.8979 79.4834 90.7845 79.5095 90.6255C80.0029 90.5487 80.4597 90.5103 80.8801 90.5103C81.0731 90.5103 81.2623 90.5266 81.4479 90.5593C81.6334 90.592 81.7992 90.6478 81.9451 90.7267C82.091 90.8056 82.1986 90.8985 82.2678 91.0053C82.337 91.1122 82.3716 91.2231 82.3716 91.3382C82.3716 91.4033 82.3637 91.47 82.3477 91.5383C82.3318 91.6065 82.306 91.6744 82.2704 91.7419C82.2221 91.8371 82.157 91.938 82.075 92.0447C81.993 92.1514 81.8628 92.2953 81.6845 92.4765C81.5063 92.6577 81.3162 92.8393 81.1145 93.0212C80.9127 93.2032 80.6894 93.3693 80.4446 93.5197H80.6464L81.3044 93.5171C81.5337 93.5171 81.695 93.5152 81.7884 93.5114C81.8817 93.5076 82.026 93.4994 82.2211 93.4868C82.2166 93.5767 82.2099 93.6633 82.2011 93.7465C82.1922 93.8297 82.1806 93.9562 82.166 94.1262C81.6787 94.1228 81.194 94.1212 80.7119 94.1212C80.1217 94.1212 79.6068 94.1229 79.1673 94.1261Z" fill="white"/>
<path d="M35.5061 155.279C35.9044 155.279 36.2473 155.353 36.5348 155.502C36.8223 155.651 37.0436 155.885 37.1989 156.205C37.354 156.524 37.4316 156.894 37.4316 157.315C37.4316 157.646 37.3848 157.976 37.291 158.306C37.1973 158.636 37.066 158.909 36.8973 159.125C36.7286 159.341 36.4967 159.509 36.2016 159.629C35.9064 159.75 35.5909 159.81 35.2551 159.81C34.9295 159.81 34.6392 159.756 34.3839 159.648C34.1286 159.541 33.9213 159.39 33.7618 159.196C33.6024 159.002 33.4917 158.786 33.4297 158.549C33.3677 158.312 33.3367 158.068 33.3367 157.817C33.3367 157.472 33.3834 157.134 33.4766 156.802C33.5698 156.469 33.7067 156.189 33.8875 155.96C34.0683 155.732 34.303 155.561 34.5917 155.448C34.8805 155.335 35.1852 155.279 35.5061 155.279ZM35.4769 156.054C35.3976 156.054 35.3187 156.068 35.2401 156.096C35.1615 156.123 35.0836 156.17 35.0065 156.236C34.9294 156.302 34.8648 156.381 34.8128 156.472C34.7608 156.563 34.713 156.675 34.6694 156.807C34.6258 156.939 34.5915 157.098 34.5666 157.282C34.5416 157.466 34.5291 157.656 34.5291 157.851C34.5291 158.13 34.5606 158.354 34.6237 158.522C34.6868 158.69 34.7777 158.818 34.8966 158.906C35.0155 158.994 35.1507 159.038 35.3023 159.038C35.385 159.038 35.4658 159.023 35.5446 158.995C35.6234 158.967 35.7055 158.912 35.7908 158.83C35.8761 158.748 35.9548 158.624 36.0267 158.457C36.0987 158.291 36.1514 158.106 36.1851 157.904C36.2187 157.701 36.2355 157.498 36.2355 157.293C36.2355 157.012 36.2045 156.782 36.1425 156.601C36.0805 156.421 35.9919 156.285 35.8767 156.193C35.7615 156.1 35.6282 156.054 35.4769 156.054Z" fill="white"/>
<path d="M35.7177 163.743L37.5631 160.841L39.4892 157.888L40.0399 157.002C40.2451 157.008 40.413 157.011 40.5436 157.011C40.6786 157.011 40.8697 157.008 41.1168 157.002L40.2611 158.393L37.2902 162.976L36.8201 163.743C36.6116 163.737 36.4594 163.733 36.3636 163.733C36.2283 163.733 36.013 163.737 35.7177 163.743Z" fill="white"/>
<path d="M40.7551 165.746C40.7891 165.379 40.817 164.993 40.8386 164.589L40.9077 163.341C40.9319 162.919 40.9477 162.576 40.955 162.314C40.938 162.361 40.8964 162.403 40.8302 162.441C40.7641 162.478 40.5814 162.564 40.2822 162.697C40.2945 162.519 40.3049 162.35 40.3132 162.19C40.3216 162.031 40.3258 161.896 40.3258 161.785C40.432 161.733 40.5552 161.671 40.6954 161.598C40.8357 161.525 40.9187 161.481 40.9443 161.466C40.97 161.452 41.0221 161.417 41.1006 161.364C41.2409 161.368 41.4246 161.37 41.6514 161.37C41.8771 161.37 42.0922 161.368 42.2967 161.364L42.2556 161.857C42.2456 161.958 42.2346 162.098 42.2227 162.276L42.0771 164.76L42.0664 165.123C42.0641 165.199 42.0632 165.277 42.0632 165.355L42.0672 165.746C41.8481 165.742 41.6416 165.74 41.4477 165.74C41.2231 165.74 40.9922 165.741 40.7551 165.746Z" fill="white"/>
<path d="M64.2303 120.65C64.2579 120.353 64.2805 120.04 64.298 119.711L64.3541 118.699C64.3738 118.357 64.3866 118.079 64.3924 117.866C64.3787 117.904 64.3449 117.938 64.2912 117.969C64.2376 117.999 64.0893 118.068 63.8465 118.177C63.8566 118.032 63.8649 117.895 63.8717 117.766C63.8785 117.636 63.8819 117.527 63.8819 117.437C63.968 117.395 64.068 117.344 64.1818 117.285C64.2956 117.226 64.3629 117.19 64.3838 117.178C64.4046 117.166 64.4468 117.138 64.5106 117.095C64.6244 117.098 64.7734 117.1 64.9575 117.1C65.1406 117.1 65.3151 117.098 65.481 117.095L65.4477 117.495C65.4396 117.577 65.4307 117.69 65.421 117.835L65.3029 119.85L65.2942 120.145C65.2925 120.207 65.2916 120.27 65.2916 120.333L65.2948 120.65C65.1171 120.647 64.9496 120.645 64.7922 120.645C64.61 120.645 64.4227 120.647 64.2303 120.65Z" fill="white"/>
<path d="M64.9313 123.901L66.4287 121.546L67.9914 119.15L68.4382 118.432C68.6047 118.437 68.741 118.439 68.8469 118.439C68.9565 118.439 69.1115 118.437 69.312 118.432L68.6177 119.56L66.2073 123.279L65.8258 123.901C65.6566 123.896 65.5332 123.893 65.4554 123.893C65.3456 123.893 65.171 123.896 64.9313 123.901Z" fill="white"/>
<path d="M69.3876 125.526C69.4251 125.148 69.4507 124.801 69.4644 124.484H68.9356L67.7823 124.499C67.7866 124.437 67.793 124.325 67.8018 124.161C67.8105 123.998 67.8148 123.881 67.8148 123.809L68.0692 123.534C68.1023 123.496 68.181 123.405 68.3053 123.26L68.9379 122.517C69.0124 122.426 69.0745 122.353 69.1242 122.299C69.1739 122.244 69.2544 122.135 69.3656 121.971C69.5907 121.975 69.7992 121.976 69.9909 121.976C70.1706 121.976 70.3649 121.974 70.5737 121.971C70.514 122.729 70.4776 123.356 70.4644 123.854C70.4852 123.855 70.5753 123.855 70.7347 123.855C70.8882 123.855 71.0136 123.853 71.1107 123.848C71.1048 124.002 71.1019 124.171 71.1019 124.354V124.492C70.934 124.485 70.7121 124.482 70.4364 124.482C70.4326 124.531 70.4293 124.586 70.4265 124.647C70.4236 124.709 70.4209 124.82 70.418 124.982C70.4152 125.144 70.414 125.26 70.4144 125.33V125.526C70.2188 125.523 70.052 125.521 69.9142 125.521C69.789 125.521 69.6135 125.523 69.3876 125.526ZM69.5795 123.878C69.5834 123.814 69.5854 123.774 69.5854 123.758L69.6414 122.585C69.4188 122.948 69.254 123.188 69.147 123.306L68.6111 123.878L69.5795 123.878Z" fill="white"/>
<path d="M63.1292 57.6263C63.1119 57.3754 63.0913 57.1463 63.0675 56.9389C63.5285 57.0654 63.9293 57.1287 64.2699 57.1287C64.4344 57.1287 64.5819 57.1068 64.7123 57.063C64.8427 57.0192 64.945 56.9571 65.0191 56.8768C65.0932 56.7965 65.1303 56.702 65.1303 56.5935C65.1303 56.5031 65.1005 56.4242 65.0408 56.3569C64.9812 56.2896 64.8837 56.2382 64.7484 56.2026C64.6131 56.1671 64.4359 56.1494 64.2168 56.1494C64.0761 56.1494 63.9035 56.157 63.699 56.1722C63.7189 55.9387 63.7359 55.7205 63.7501 55.5178C63.9107 55.5346 64.0456 55.5431 64.1547 55.5431C64.3242 55.5431 64.4814 55.5297 64.6264 55.5031C64.7715 55.4764 64.8828 55.4234 64.9605 55.344C65.0382 55.2645 65.0771 55.1786 65.0771 55.0862C65.0771 55.0491 65.0706 55.0132 65.0577 54.9786C65.0448 54.9439 65.0267 54.9122 65.0035 54.8835C64.9803 54.8547 64.9512 54.8294 64.916 54.8074C64.8809 54.7854 64.8419 54.7674 64.799 54.7534C64.7561 54.7394 64.6935 54.7274 64.6112 54.7176C64.5289 54.7078 64.4426 54.7028 64.3525 54.7028C64.2275 54.7028 64.0965 54.7099 63.9592 54.7241C63.8219 54.7383 63.6201 54.7658 63.3538 54.8065L63.4132 54.5255L63.4894 54.1687C63.7447 54.1383 63.9537 54.1178 64.1162 54.1072C64.2787 54.0966 64.448 54.0914 64.6239 54.0914C64.8339 54.0914 65.0387 54.1061 65.2383 54.1356C65.4379 54.1651 65.6116 54.2179 65.7594 54.2939C65.9071 54.3699 66.0162 54.4683 66.0866 54.5889C66.157 54.7096 66.1922 54.8408 66.1922 54.9825C66.1922 55.0746 66.1767 55.1655 66.1457 55.2552C66.1146 55.3449 66.0683 55.4282 66.0067 55.5051C65.945 55.5821 65.8757 55.6459 65.7988 55.6964C65.7218 55.747 65.6474 55.7872 65.5754 55.8172C65.5034 55.8471 65.4149 55.8593 65.31 55.8538C65.4188 55.8519 65.5134 55.863 65.5937 55.8874C65.6739 55.9118 65.7532 55.9489 65.8314 55.9988C65.9097 56.0486 65.9761 56.1064 66.0306 56.172C66.0852 56.2376 66.1263 56.3135 66.1538 56.3998C66.1814 56.4861 66.1952 56.5743 66.1952 56.6642C66.1952 56.8305 66.1492 56.9877 66.0571 57.1359C65.9649 57.2841 65.8314 57.407 65.6565 57.5047C65.4815 57.6023 65.2849 57.6706 65.0667 57.7095C64.8484 57.7484 64.6212 57.7678 64.385 57.7678C64.2103 57.7678 64.0318 57.7585 63.8493 57.7398C63.6668 57.7211 63.4267 57.6833 63.1292 57.6263Z" fill="white"/>
<path d="M64.9541 60.9576L66.4514 58.6028L68.0141 56.2071L68.461 55.4883C68.6275 55.4935 68.7637 55.496 68.8696 55.496C68.9792 55.496 69.1342 55.4935 69.3347 55.4883L68.6404 56.617L66.23 60.3356L65.8486 60.9576C65.6794 60.9525 65.5559 60.9499 65.4781 60.9499C65.3684 60.9499 65.1937 60.9525 64.9541 60.9576Z" fill="white"/>
<path d="M69.4134 62.5829C69.4509 62.205 69.4765 61.8577 69.4902 61.541H68.9614L67.8081 61.5561C67.8124 61.4939 67.8189 61.3812 67.8276 61.2181C67.8363 61.0549 67.8407 60.9375 67.8407 60.8657L68.095 60.5905C68.1281 60.5527 68.2068 60.4613 68.3311 60.3164L68.9637 59.5736C69.0382 59.4828 69.1003 59.4101 69.15 59.3555C69.1997 59.3009 69.2802 59.1918 69.3914 59.0281C69.6165 59.0312 69.825 59.0327 70.0167 59.0327C70.1964 59.0327 70.3907 59.031 70.5995 59.0277C70.5398 59.7853 70.5034 60.4131 70.4902 60.9111C70.511 60.9116 70.6011 60.9119 70.7605 60.9119C70.914 60.9119 71.0394 60.9093 71.1366 60.9043C71.1307 61.0588 71.1277 61.2277 71.1277 61.411V61.5486C70.9598 61.5419 70.738 61.5385 70.4622 61.5385C70.4584 61.5874 70.4551 61.6426 70.4523 61.704C70.4495 61.7655 70.4467 61.8771 70.4438 62.0389C70.441 62.2006 70.4398 62.3167 70.4402 62.3872V62.583C70.2445 62.5796 70.0778 62.5779 69.94 62.5779C69.8148 62.5779 69.6393 62.5796 69.4134 62.5829ZM69.6053 60.9345C69.6092 60.8703 69.6112 60.8305 69.6112 60.815L69.6672 59.6416C69.4446 60.0042 69.2798 60.2445 69.1729 60.3624L68.6369 60.9345L69.6053 60.9345Z" fill="white"/>
<path d="M0.35751 91.1405C-0.597665 89.3251 0.588051 87.8842 1.27307 87.2941C1.75648 86.896 2.44483 86.6611 2.44483 86.6611L94.3754 56.4391L5.60558 92.9487C5.60558 92.9487 4.96495 93.1496 4.2469 93.1967C3.27042 93.2608 1.23337 92.9907 0.35751 91.1405Z" fill="#ED8B00"/>
<path d="M4.44165 90.0054C4.44165 90.0946 4.40029 90.1801 4.32668 90.2432C4.25306 90.3063 4.15322 90.3418 4.04911 90.3418C3.945 90.3418 3.84516 90.3063 3.77155 90.2432C3.69793 90.1801 3.65658 90.0946 3.65658 90.0054C3.65658 89.9161 3.69793 89.8306 3.77155 89.7675C3.84516 89.7044 3.945 89.669 4.04911 89.669C4.15322 89.669 4.25306 89.7044 4.32668 89.7675C4.40029 89.8306 4.44165 89.9161 4.44165 90.0054Z" fill="#FF6600"/>
<path d="M97.9064 20L102.631 9.5H104.551L109.291 20H107.251L103.186 10.535H103.966L99.9164 20H97.9064ZM100.081 17.57L100.606 16.04H106.276L106.801 17.57H100.081Z" fill="white"/>
<path d="M113.69 20.105C113.01 20.105 112.41 19.98 111.89 19.73C111.37 19.47 110.965 19.08 110.675 18.56C110.385 18.03 110.24 17.365 110.24 16.565V11.99H112.115V16.31C112.115 17.03 112.275 17.57 112.595 17.93C112.925 18.28 113.39 18.455 113.99 18.455C114.43 18.455 114.81 18.365 115.13 18.185C115.46 18.005 115.715 17.735 115.895 17.375C116.085 17.015 116.18 16.57 116.18 16.04V11.99H118.055V20H116.27V17.84L116.585 18.5C116.315 19.02 115.92 19.42 115.4 19.7C114.88 19.97 114.31 20.105 113.69 20.105Z" fill="white"/>
<path d="M123.525 20.105C122.645 20.105 121.965 19.88 121.485 19.43C121.005 18.97 120.765 18.295 120.765 17.405V10.22H122.64V17.36C122.64 17.74 122.735 18.035 122.925 18.245C123.125 18.455 123.4 18.56 123.75 18.56C124.17 18.56 124.52 18.45 124.8 18.23L125.325 19.565C125.105 19.745 124.835 19.88 124.515 19.97C124.195 20.06 123.865 20.105 123.525 20.105ZM119.445 13.55V12.05H124.785V13.55H119.445Z" fill="white"/>
<path d="M130.204 20.105C129.384 20.105 128.654 19.93 128.014 19.58C127.374 19.22 126.869 18.73 126.499 18.11C126.129 17.49 125.944 16.785 125.944 15.995C125.944 15.195 126.129 14.49 126.499 13.88C126.869 13.26 127.374 12.775 128.014 12.425C128.654 12.075 129.384 11.9 130.204 11.9C131.034 11.9 131.769 12.075 132.409 12.425C133.059 12.775 133.564 13.255 133.924 13.865C134.294 14.475 134.479 15.185 134.479 15.995C134.479 16.785 134.294 17.49 133.924 18.11C133.564 18.73 133.059 19.22 132.409 19.58C131.769 19.93 131.034 20.105 130.204 20.105ZM130.204 18.5C130.664 18.5 131.074 18.4 131.434 18.2C131.794 18 132.074 17.71 132.274 17.33C132.484 16.95 132.589 16.505 132.589 15.995C132.589 15.475 132.484 15.03 132.274 14.66C132.074 14.28 131.794 13.99 131.434 13.79C131.074 13.59 130.669 13.49 130.219 13.49C129.759 13.49 129.349 13.59 128.989 13.79C128.639 13.99 128.359 14.28 128.149 14.66C127.939 15.03 127.834 15.475 127.834 15.995C127.834 16.505 127.939 16.95 128.149 17.33C128.359 17.71 128.639 18 128.989 18.2C129.349 18.4 129.754 18.5 130.204 18.5Z" fill="white"/>
<path d="M140.817 11.9C141.457 11.9 142.027 12.025 142.527 12.275C143.037 12.525 143.437 12.91 143.727 13.43C144.017 13.94 144.162 14.6 144.162 15.41V20H142.287V15.65C142.287 14.94 142.117 14.41 141.777 14.06C141.447 13.71 140.982 13.535 140.382 13.535C139.942 13.535 139.552 13.625 139.212 13.805C138.872 13.985 138.607 14.255 138.417 14.615C138.237 14.965 138.147 15.41 138.147 15.95V20H136.272V11.99H138.057V14.15L137.742 13.49C138.022 12.98 138.427 12.59 138.957 12.32C139.497 12.04 140.117 11.9 140.817 11.9Z" fill="white"/>
<path d="M150.155 20.105C149.335 20.105 148.605 19.93 147.965 19.58C147.325 19.22 146.82 18.73 146.45 18.11C146.08 17.49 145.895 16.785 145.895 15.995C145.895 15.195 146.08 14.49 146.45 13.88C146.82 13.26 147.325 12.775 147.965 12.425C148.605 12.075 149.335 11.9 150.155 11.9C150.985 11.9 151.72 12.075 152.36 12.425C153.01 12.775 153.515 13.255 153.875 13.865C154.245 14.475 154.43 15.185 154.43 15.995C154.43 16.785 154.245 17.49 153.875 18.11C153.515 18.73 153.01 19.22 152.36 19.58C151.72 19.93 150.985 20.105 150.155 20.105ZM150.155 18.5C150.615 18.5 151.025 18.4 151.385 18.2C151.745 18 152.025 17.71 152.225 17.33C152.435 16.95 152.54 16.505 152.54 15.995C152.54 15.475 152.435 15.03 152.225 14.66C152.025 14.28 151.745 13.99 151.385 13.79C151.025 13.59 150.62 13.49 150.17 13.49C149.71 13.49 149.3 13.59 148.94 13.79C148.59 13.99 148.31 14.28 148.1 14.66C147.89 15.03 147.785 15.475 147.785 15.995C147.785 16.505 147.89 16.95 148.1 17.33C148.31 17.71 148.59 18 148.94 18.2C149.3 18.4 149.705 18.5 150.155 18.5Z" fill="white"/>
<path d="M166.333 11.9C166.973 11.9 167.538 12.025 168.028 12.275C168.528 12.525 168.918 12.91 169.198 13.43C169.478 13.94 169.618 14.6 169.618 15.41V20H167.743V15.65C167.743 14.94 167.588 14.41 167.278 14.06C166.968 13.71 166.523 13.535 165.943 13.535C165.533 13.535 165.168 13.625 164.848 13.805C164.538 13.985 164.293 14.25 164.113 14.6C163.943 14.95 163.858 15.395 163.858 15.935V20H161.983V15.65C161.983 14.94 161.828 14.41 161.518 14.06C161.208 13.71 160.763 13.535 160.183 13.535C159.773 13.535 159.408 13.625 159.088 13.805C158.778 13.985 158.533 14.25 158.353 14.6C158.183 14.95 158.098 15.395 158.098 15.935V20H156.223V11.99H158.008V14.12L157.693 13.49C157.963 12.97 158.353 12.575 158.863 12.305C159.383 12.035 159.973 11.9 160.633 11.9C161.383 11.9 162.033 12.085 162.583 12.455C163.143 12.825 163.513 13.385 163.693 14.135L162.958 13.88C163.218 13.28 163.648 12.8 164.248 12.44C164.848 12.08 165.543 11.9 166.333 11.9Z" fill="white"/>
<path d="M172.014 20V11.99H173.889V20H172.014ZM172.959 10.67C172.609 10.67 172.319 10.56 172.089 10.34C171.869 10.12 171.759 9.855 171.759 9.545C171.759 9.225 171.869 8.96 172.089 8.75C172.319 8.53 172.609 8.42 172.959 8.42C173.309 8.42 173.594 8.525 173.814 8.735C174.044 8.935 174.159 9.19 174.159 9.5C174.159 9.83 174.049 10.11 173.829 10.34C173.609 10.56 173.319 10.67 172.959 10.67Z" fill="white"/>
<path d="M181.285 20V18.38L181.18 18.035V15.2C181.18 14.65 181.015 14.225 180.685 13.925C180.355 13.615 179.855 13.46 179.185 13.46C178.735 13.46 178.29 13.53 177.85 13.67C177.42 13.81 177.055 14.005 176.755 14.255L176.02 12.89C176.45 12.56 176.96 12.315 177.55 12.155C178.15 11.985 178.77 11.9 179.41 11.9C180.57 11.9 181.465 12.18 182.095 12.74C182.735 13.29 183.055 14.145 183.055 15.305V20H181.285ZM178.765 20.105C178.165 20.105 177.64 20.005 177.19 19.805C176.74 19.595 176.39 19.31 176.14 18.95C175.9 18.58 175.78 18.165 175.78 17.705C175.78 17.255 175.885 16.85 176.095 16.49C176.315 16.13 176.67 15.845 177.16 15.635C177.65 15.425 178.3 15.32 179.11 15.32H181.435V16.565H179.245C178.605 16.565 178.175 16.67 177.955 16.88C177.735 17.08 177.625 17.33 177.625 17.63C177.625 17.97 177.76 18.24 178.03 18.44C178.3 18.64 178.675 18.74 179.155 18.74C179.615 18.74 180.025 18.635 180.385 18.425C180.755 18.215 181.02 17.905 181.18 17.495L181.495 18.62C181.315 19.09 180.99 19.455 180.52 19.715C180.06 19.975 179.475 20.105 178.765 20.105Z" fill="white"/>
<path d="M194.047 20.105C193.397 20.105 192.802 19.955 192.262 19.655C191.732 19.355 191.307 18.905 190.987 18.305C190.677 17.695 190.522 16.925 190.522 15.995C190.522 15.055 190.672 14.285 190.972 13.685C191.282 13.085 191.702 12.64 192.232 12.35C192.762 12.05 193.367 11.9 194.047 11.9C194.837 11.9 195.532 12.07 196.132 12.41C196.742 12.75 197.222 13.225 197.572 13.835C197.932 14.445 198.112 15.165 198.112 15.995C198.112 16.825 197.932 17.55 197.572 18.17C197.222 18.78 196.742 19.255 196.132 19.595C195.532 19.935 194.837 20.105 194.047 20.105ZM189.607 22.91V11.99H191.392V13.88L191.332 16.01L191.482 18.14V22.91H189.607ZM193.837 18.5C194.287 18.5 194.687 18.4 195.037 18.2C195.397 18 195.682 17.71 195.892 17.33C196.102 16.95 196.207 16.505 196.207 15.995C196.207 15.475 196.102 15.03 195.892 14.66C195.682 14.28 195.397 13.99 195.037 13.79C194.687 13.59 194.287 13.49 193.837 13.49C193.387 13.49 192.982 13.59 192.622 13.79C192.262 13.99 191.977 14.28 191.767 14.66C191.557 15.03 191.452 15.475 191.452 15.995C191.452 16.505 191.557 16.95 191.767 17.33C191.977 17.71 192.262 18 192.622 18.2C192.982 18.4 193.387 18.5 193.837 18.5Z" fill="white"/>
<path d="M204.723 20V18.38L204.618 18.035V15.2C204.618 14.65 204.453 14.225 204.123 13.925C203.793 13.615 203.293 13.46 202.623 13.46C202.173 13.46 201.728 13.53 201.288 13.67C200.858 13.81 200.493 14.005 200.193 14.255L199.458 12.89C199.888 12.56 200.398 12.315 200.988 12.155C201.588 11.985 202.208 11.9 202.848 11.9C204.008 11.9 204.903 12.18 205.533 12.74C206.173 13.29 206.493 14.145 206.493 15.305V20H204.723ZM202.203 20.105C201.603 20.105 201.078 20.005 200.628 19.805C200.178 19.595 199.828 19.31 199.578 18.95C199.338 18.58 199.218 18.165 199.218 17.705C199.218 17.255 199.323 16.85 199.533 16.49C199.753 16.13 200.108 15.845 200.598 15.635C201.088 15.425 201.738 15.32 202.548 15.32H204.873V16.565H202.683C202.043 16.565 201.613 16.67 201.393 16.88C201.173 17.08 201.063 17.33 201.063 17.63C201.063 17.97 201.198 18.24 201.468 18.44C201.738 18.64 202.113 18.74 202.593 18.74C203.053 18.74 203.463 18.635 203.823 18.425C204.193 18.215 204.458 17.905 204.618 17.495L204.933 18.62C204.753 19.09 204.428 19.455 203.958 19.715C203.498 19.975 202.913 20.105 202.203 20.105Z" fill="white"/>
<path d="M208.899 20V11.99H210.684V14.195L210.474 13.55C210.714 13.01 211.089 12.6 211.599 12.32C212.119 12.04 212.764 11.9 213.534 11.9V13.685C213.454 13.665 213.379 13.655 213.309 13.655C213.239 13.645 213.169 13.64 213.099 13.64C212.389 13.64 211.824 13.85 211.404 14.27C210.984 14.68 210.774 15.295 210.774 16.115V20H208.899Z" fill="white"/>
<path d="M219.488 20V18.38L219.383 18.035V15.2C219.383 14.65 219.218 14.225 218.888 13.925C218.558 13.615 218.058 13.46 217.388 13.46C216.938 13.46 216.493 13.53 216.053 13.67C215.623 13.81 215.258 14.005 214.958 14.255L214.223 12.89C214.653 12.56 215.163 12.315 215.753 12.155C216.353 11.985 216.973 11.9 217.613 11.9C218.773 11.9 219.668 12.18 220.298 12.74C220.938 13.29 221.258 14.145 221.258 15.305V20H219.488ZM216.968 20.105C216.368 20.105 215.843 20.005 215.393 19.805C214.943 19.595 214.593 19.31 214.343 18.95C214.103 18.58 213.983 18.165 213.983 17.705C213.983 17.255 214.088 16.85 214.298 16.49C214.518 16.13 214.873 15.845 215.363 15.635C215.853 15.425 216.503 15.32 217.313 15.32H219.638V16.565H217.448C216.808 16.565 216.378 16.67 216.158 16.88C215.938 17.08 215.828 17.33 215.828 17.63C215.828 17.97 215.963 18.24 216.233 18.44C216.503 18.64 216.878 18.74 217.358 18.74C217.818 18.74 218.228 18.635 218.588 18.425C218.958 18.215 219.223 17.905 219.383 17.495L219.698 18.62C219.518 19.09 219.193 19.455 218.723 19.715C218.263 19.975 217.678 20.105 216.968 20.105Z" fill="white"/>
<path d="M231.41 20.105C230.59 20.105 229.86 19.93 229.22 19.58C228.58 19.22 228.075 18.73 227.705 18.11C227.335 17.49 227.15 16.785 227.15 15.995C227.15 15.195 227.335 14.49 227.705 13.88C228.075 13.26 228.58 12.775 229.22 12.425C229.86 12.075 230.59 11.9 231.41 11.9C232.24 11.9 232.975 12.075 233.615 12.425C234.265 12.775 234.77 13.255 235.13 13.865C235.5 14.475 235.685 15.185 235.685 15.995C235.685 16.785 235.5 17.49 235.13 18.11C234.77 18.73 234.265 19.22 233.615 19.58C232.975 19.93 232.24 20.105 231.41 20.105ZM231.41 18.5C231.87 18.5 232.28 18.4 232.64 18.2C233 18 233.28 17.71 233.48 17.33C233.69 16.95 233.795 16.505 233.795 15.995C233.795 15.475 233.69 15.03 233.48 14.66C233.28 14.28 233 13.99 232.64 13.79C232.28 13.59 231.875 13.49 231.425 13.49C230.965 13.49 230.555 13.59 230.195 13.79C229.845 13.99 229.565 14.28 229.355 14.66C229.145 15.03 229.04 15.475 229.04 15.995C229.04 16.505 229.145 16.95 229.355 17.33C229.565 17.71 229.845 18 230.195 18.2C230.555 18.4 230.96 18.5 231.41 18.5Z" fill="white"/>
<path d="M239.953 20.105C239.283 20.105 238.638 20.02 238.018 19.85C237.408 19.67 236.923 19.455 236.563 19.205L237.283 17.78C237.643 18.01 238.073 18.2 238.573 18.35C239.073 18.5 239.573 18.575 240.073 18.575C240.663 18.575 241.088 18.495 241.348 18.335C241.618 18.175 241.753 17.96 241.753 17.69C241.753 17.47 241.663 17.305 241.483 17.195C241.303 17.075 241.068 16.985 240.778 16.925C240.488 16.865 240.163 16.81 239.803 16.76C239.453 16.71 239.098 16.645 238.738 16.565C238.388 16.475 238.068 16.35 237.778 16.19C237.488 16.02 237.253 15.795 237.073 15.515C236.893 15.235 236.803 14.865 236.803 14.405C236.803 13.895 236.948 13.455 237.238 13.085C237.528 12.705 237.933 12.415 238.453 12.215C238.983 12.005 239.608 11.9 240.328 11.9C240.868 11.9 241.413 11.96 241.963 12.08C242.513 12.2 242.968 12.37 243.328 12.59L242.608 14.015C242.228 13.785 241.843 13.63 241.453 13.55C241.073 13.46 240.693 13.415 240.313 13.415C239.743 13.415 239.318 13.5 239.038 13.67C238.768 13.84 238.633 14.055 238.633 14.315C238.633 14.555 238.723 14.735 238.903 14.855C239.083 14.975 239.318 15.07 239.608 15.14C239.898 15.21 240.218 15.27 240.568 15.32C240.928 15.36 241.283 15.425 241.633 15.515C241.983 15.605 242.303 15.73 242.593 15.89C242.893 16.04 243.133 16.255 243.313 16.535C243.493 16.815 243.583 17.18 243.583 17.63C243.583 18.13 243.433 18.565 243.133 18.935C242.843 19.305 242.428 19.595 241.888 19.805C241.348 20.005 240.703 20.105 239.953 20.105Z" fill="white"/>
<path d="M249.343 20V8.87H251.218V20H249.343Z" fill="white"/>
<path d="M257.279 20.105C256.459 20.105 255.729 19.93 255.089 19.58C254.449 19.22 253.944 18.73 253.574 18.11C253.204 17.49 253.019 16.785 253.019 15.995C253.019 15.195 253.204 14.49 253.574 13.88C253.944 13.26 254.449 12.775 255.089 12.425C255.729 12.075 256.459 11.9 257.279 11.9C258.109 11.9 258.844 12.075 259.484 12.425C260.134 12.775 260.639 13.255 260.999 13.865C261.369 14.475 261.554 15.185 261.554 15.995C261.554 16.785 261.369 17.49 260.999 18.11C260.639 18.73 260.134 19.22 259.484 19.58C258.844 19.93 258.109 20.105 257.279 20.105ZM257.279 18.5C257.739 18.5 258.149 18.4 258.509 18.2C258.869 18 259.149 17.71 259.349 17.33C259.559 16.95 259.664 16.505 259.664 15.995C259.664 15.475 259.559 15.03 259.349 14.66C259.149 14.28 258.869 13.99 258.509 13.79C258.149 13.59 257.744 13.49 257.294 13.49C256.834 13.49 256.424 13.59 256.064 13.79C255.714 13.99 255.434 14.28 255.224 14.66C255.014 15.03 254.909 15.475 254.909 15.995C254.909 16.505 255.014 16.95 255.224 17.33C255.434 17.71 255.714 18 256.064 18.2C256.424 18.4 256.829 18.5 257.279 18.5Z" fill="white"/>
<path d="M267.022 20.105C266.182 20.105 265.432 19.93 264.772 19.58C264.122 19.22 263.612 18.73 263.242 18.11C262.872 17.49 262.687 16.785 262.687 15.995C262.687 15.195 262.872 14.49 263.242 13.88C263.612 13.26 264.122 12.775 264.772 12.425C265.432 12.075 266.182 11.9 267.022 11.9C267.802 11.9 268.487 12.06 269.077 12.38C269.677 12.69 270.132 13.15 270.442 13.76L269.002 14.6C268.762 14.22 268.467 13.94 268.117 13.76C267.777 13.58 267.407 13.49 267.007 13.49C266.547 13.49 266.132 13.59 265.762 13.79C265.392 13.99 265.102 14.28 264.892 14.66C264.682 15.03 264.577 15.475 264.577 15.995C264.577 16.515 264.682 16.965 264.892 17.345C265.102 17.715 265.392 18 265.762 18.2C266.132 18.4 266.547 18.5 267.007 18.5C267.407 18.5 267.777 18.41 268.117 18.23C268.467 18.05 268.762 17.77 269.002 17.39L270.442 18.23C270.132 18.83 269.677 19.295 269.077 19.625C268.487 19.945 267.802 20.105 267.022 20.105Z" fill="white"/>
<path d="M276.998 20V18.38L276.893 18.035V15.2C276.893 14.65 276.728 14.225 276.398 13.925C276.068 13.615 275.568 13.46 274.898 13.46C274.448 13.46 274.003 13.53 273.563 13.67C273.133 13.81 272.768 14.005 272.468 14.255L271.733 12.89C272.163 12.56 272.673 12.315 273.263 12.155C273.863 11.985 274.483 11.9 275.123 11.9C276.283 11.9 277.178 12.18 277.808 12.74C278.448 13.29 278.768 14.145 278.768 15.305V20H276.998ZM274.478 20.105C273.878 20.105 273.353 20.005 272.903 19.805C272.453 19.595 272.103 19.31 271.853 18.95C271.613 18.58 271.493 18.165 271.493 17.705C271.493 17.255 271.598 16.85 271.808 16.49C272.028 16.13 272.383 15.845 272.873 15.635C273.363 15.425 274.013 15.32 274.823 15.32H277.148V16.565H274.958C274.318 16.565 273.888 16.67 273.668 16.88C273.448 17.08 273.338 17.33 273.338 17.63C273.338 17.97 273.473 18.24 273.743 18.44C274.013 18.64 274.388 18.74 274.868 18.74C275.328 18.74 275.738 18.635 276.098 18.425C276.468 18.215 276.733 17.905 276.893 17.495L277.208 18.62C277.028 19.09 276.703 19.455 276.233 19.715C275.773 19.975 275.188 20.105 274.478 20.105Z" fill="white"/>
<path d="M281.174 20V11.99H283.049V20H281.174ZM282.119 10.67C281.769 10.67 281.479 10.56 281.249 10.34C281.029 10.12 280.919 9.855 280.919 9.545C280.919 9.225 281.029 8.96 281.249 8.75C281.479 8.53 281.769 8.42 282.119 8.42C282.469 8.42 282.754 8.525 282.974 8.735C283.204 8.935 283.319 9.19 283.319 9.5C283.319 9.83 283.209 10.11 282.989 10.34C282.769 10.56 282.479 10.67 282.119 10.67Z" fill="white"/>
<path d="M287.985 20.105C287.315 20.105 286.67 20.02 286.05 19.85C285.44 19.67 284.955 19.455 284.595 19.205L285.315 17.78C285.675 18.01 286.105 18.2 286.605 18.35C287.105 18.5 287.605 18.575 288.105 18.575C288.695 18.575 289.12 18.495 289.38 18.335C289.65 18.175 289.785 17.96 289.785 17.69C289.785 17.47 289.695 17.305 289.515 17.195C289.335 17.075 289.1 16.985 288.81 16.925C288.52 16.865 288.195 16.81 287.835 16.76C287.485 16.71 287.13 16.645 286.77 16.565C286.42 16.475 286.1 16.35 285.81 16.19C285.52 16.02 285.285 15.795 285.105 15.515C284.925 15.235 284.835 14.865 284.835 14.405C284.835 13.895 284.98 13.455 285.27 13.085C285.56 12.705 285.965 12.415 286.485 12.215C287.015 12.005 287.64 11.9 288.36 11.9C288.9 11.9 289.445 11.96 289.995 12.08C290.545 12.2 291 12.37 291.36 12.59L290.64 14.015C290.26 13.785 289.875 13.63 289.485 13.55C289.105 13.46 288.725 13.415 288.345 13.415C287.775 13.415 287.35 13.5 287.07 13.67C286.8 13.84 286.665 14.055 286.665 14.315C286.665 14.555 286.755 14.735 286.935 14.855C287.115 14.975 287.35 15.07 287.64 15.14C287.93 15.21 288.25 15.27 288.6 15.32C288.96 15.36 289.315 15.425 289.665 15.515C290.015 15.605 290.335 15.73 290.625 15.89C290.925 16.04 291.165 16.255 291.345 16.535C291.525 16.815 291.615 17.18 291.615 17.63C291.615 18.13 291.465 18.565 291.165 18.935C290.875 19.305 290.46 19.595 289.92 19.805C289.38 20.005 288.735 20.105 287.985 20.105Z" fill="white"/>
<path d="M210.839 38.105C210.069 38.105 209.374 37.935 208.754 37.595C208.144 37.245 207.664 36.765 207.314 36.155C206.964 35.545 206.789 34.825 206.789 33.995C206.789 33.165 206.964 32.445 207.314 31.835C207.664 31.225 208.144 30.75 208.754 30.41C209.374 30.07 210.069 29.9 210.839 29.9C211.509 29.9 212.109 30.05 212.639 30.35C213.169 30.64 213.589 31.085 213.899 31.685C214.209 32.285 214.364 33.055 214.364 33.995C214.364 34.925 214.214 35.695 213.914 36.305C213.614 36.905 213.199 37.355 212.669 37.655C212.139 37.955 211.529 38.105 210.839 38.105ZM211.064 36.5C211.514 36.5 211.914 36.4 212.264 36.2C212.624 36 212.909 35.71 213.119 35.33C213.339 34.95 213.449 34.505 213.449 33.995C213.449 33.475 213.339 33.03 213.119 32.66C212.909 32.28 212.624 31.99 212.264 31.79C211.914 31.59 211.514 31.49 211.064 31.49C210.614 31.49 210.209 31.59 209.849 31.79C209.499 31.99 209.214 32.28 208.994 32.66C208.784 33.03 208.679 33.475 208.679 33.995C208.679 34.505 208.784 34.95 208.994 35.33C209.214 35.71 209.499 36 209.849 36.2C210.209 36.4 210.614 36.5 211.064 36.5ZM213.494 38V36.11L213.569 33.98L213.419 31.85V26.87H215.279V38H213.494Z" fill="white"/>
<path d="M222.682 38V36.38L222.577 36.035V33.2C222.577 32.65 222.412 32.225 222.082 31.925C221.752 31.615 221.252 31.46 220.582 31.46C220.132 31.46 219.687 31.53 219.247 31.67C218.817 31.81 218.452 32.005 218.152 32.255L217.417 30.89C217.847 30.56 218.357 30.315 218.947 30.155C219.547 29.985 220.167 29.9 220.807 29.9C221.967 29.9 222.862 30.18 223.492 30.74C224.132 31.29 224.452 32.145 224.452 33.305V38H222.682ZM220.162 38.105C219.562 38.105 219.037 38.005 218.587 37.805C218.137 37.595 217.787 37.31 217.537 36.95C217.297 36.58 217.177 36.165 217.177 35.705C217.177 35.255 217.282 34.85 217.492 34.49C217.712 34.13 218.067 33.845 218.557 33.635C219.047 33.425 219.697 33.32 220.507 33.32H222.832V34.565H220.642C220.002 34.565 219.572 34.67 219.352 34.88C219.132 35.08 219.022 35.33 219.022 35.63C219.022 35.97 219.157 36.24 219.427 36.44C219.697 36.64 220.072 36.74 220.552 36.74C221.012 36.74 221.422 36.635 221.782 36.425C222.152 36.215 222.417 35.905 222.577 35.495L222.892 36.62C222.712 37.09 222.387 37.455 221.917 37.715C221.457 37.975 220.872 38.105 220.162 38.105Z" fill="white"/>
<path d="M235.938 38V36.38L235.833 36.035V33.2C235.833 32.65 235.668 32.225 235.338 31.925C235.008 31.615 234.508 31.46 233.838 31.46C233.388 31.46 232.943 31.53 232.503 31.67C232.073 31.81 231.708 32.005 231.408 32.255L230.673 30.89C231.103 30.56 231.613 30.315 232.203 30.155C232.803 29.985 233.423 29.9 234.063 29.9C235.223 29.9 236.118 30.18 236.748 30.74C237.388 31.29 237.708 32.145 237.708 33.305V38H235.938ZM233.418 38.105C232.818 38.105 232.293 38.005 231.843 37.805C231.393 37.595 231.043 37.31 230.793 36.95C230.553 36.58 230.433 36.165 230.433 35.705C230.433 35.255 230.538 34.85 230.748 34.49C230.968 34.13 231.323 33.845 231.813 33.635C232.303 33.425 232.953 33.32 233.763 33.32H236.088V34.565H233.898C233.258 34.565 232.828 34.67 232.608 34.88C232.388 35.08 232.278 35.33 232.278 35.63C232.278 35.97 232.413 36.24 232.683 36.44C232.953 36.64 233.328 36.74 233.808 36.74C234.268 36.74 234.678 36.635 235.038 36.425C235.408 36.215 235.673 35.905 235.833 35.495L236.148 36.62C235.968 37.09 235.643 37.455 235.173 37.715C234.713 37.975 234.128 38.105 233.418 38.105Z" fill="white"/>
<path d="M243.759 41.015C243.019 41.015 242.294 40.915 241.584 40.715C240.884 40.525 240.309 40.245 239.859 39.875L240.699 38.465C241.049 38.755 241.489 38.985 242.019 39.155C242.559 39.335 243.104 39.425 243.654 39.425C244.534 39.425 245.179 39.22 245.589 38.81C245.999 38.41 246.204 37.805 246.204 36.995V35.57L246.354 33.755L246.294 31.94V29.99H248.079V36.785C248.079 38.235 247.709 39.3 246.969 39.98C246.229 40.67 245.159 41.015 243.759 41.015ZM243.519 37.64C242.759 37.64 242.069 37.48 241.449 37.16C240.839 36.83 240.354 36.375 239.994 35.795C239.644 35.215 239.469 34.535 239.469 33.755C239.469 32.985 239.644 32.31 239.994 31.73C240.354 31.15 240.839 30.7 241.449 30.38C242.069 30.06 242.759 29.9 243.519 29.9C244.199 29.9 244.809 30.035 245.349 30.305C245.889 30.575 246.319 30.995 246.639 31.565C246.969 32.135 247.134 32.865 247.134 33.755C247.134 34.645 246.969 35.38 246.639 35.96C246.319 36.53 245.889 36.955 245.349 37.235C244.809 37.505 244.199 37.64 243.519 37.64ZM243.804 36.05C244.274 36.05 244.694 35.955 245.064 35.765C245.434 35.565 245.719 35.295 245.919 34.955C246.129 34.605 246.234 34.205 246.234 33.755C246.234 33.305 246.129 32.91 245.919 32.57C245.719 32.22 245.434 31.955 245.064 31.775C244.694 31.585 244.274 31.49 243.804 31.49C243.334 31.49 242.909 31.585 242.529 31.775C242.159 31.955 241.869 32.22 241.659 32.57C241.459 32.91 241.359 33.305 241.359 33.755C241.359 34.205 241.459 34.605 241.659 34.955C241.869 35.295 242.159 35.565 242.529 35.765C242.909 35.955 243.334 36.05 243.804 36.05Z" fill="white"/>
<path d="M254.309 38.105C253.419 38.105 252.639 37.93 251.969 37.58C251.309 37.22 250.794 36.73 250.424 36.11C250.064 35.49 249.884 34.785 249.884 33.995C249.884 33.195 250.059 32.49 250.409 31.88C250.769 31.26 251.259 30.775 251.879 30.425C252.509 30.075 253.224 29.9 254.024 29.9C254.804 29.9 255.499 30.07 256.109 30.41C256.719 30.75 257.199 31.23 257.549 31.85C257.899 32.47 258.074 33.2 258.074 34.04C258.074 34.12 258.069 34.21 258.059 34.31C258.059 34.41 258.054 34.505 258.044 34.595H251.369V33.35H257.054L256.319 33.74C256.329 33.28 256.234 32.875 256.034 32.525C255.834 32.175 255.559 31.9 255.209 31.7C254.869 31.5 254.474 31.4 254.024 31.4C253.564 31.4 253.159 31.5 252.809 31.7C252.469 31.9 252.199 32.18 251.999 32.54C251.809 32.89 251.714 33.305 251.714 33.785V34.085C251.714 34.565 251.824 34.99 252.044 35.36C252.264 35.73 252.574 36.015 252.974 36.215C253.374 36.415 253.834 36.515 254.354 36.515C254.804 36.515 255.209 36.445 255.569 36.305C255.929 36.165 256.249 35.945 256.529 35.645L257.534 36.8C257.174 37.22 256.719 37.545 256.169 37.775C255.629 37.995 255.009 38.105 254.309 38.105Z" fill="white"/>
<path d="M264.421 29.9C265.061 29.9 265.63 30.025 266.13 30.275C266.64 30.525 267.041 30.91 267.331 31.43C267.621 31.94 267.766 32.6 267.766 33.41V38H265.891V33.65C265.891 32.94 265.72 32.41 265.38 32.06C265.05 31.71 264.586 31.535 263.986 31.535C263.546 31.535 263.156 31.625 262.816 31.805C262.476 31.985 262.211 32.255 262.021 32.615C261.841 32.965 261.751 33.41 261.751 33.95V38H259.876V29.99H261.661V32.15L261.346 31.49C261.626 30.98 262.031 30.59 262.561 30.32C263.101 30.04 263.721 29.9 264.421 29.9Z" fill="white"/>
<path d="M273.549 38.105C272.779 38.105 272.084 37.935 271.464 37.595C270.854 37.245 270.374 36.765 270.024 36.155C269.674 35.545 269.499 34.825 269.499 33.995C269.499 33.165 269.674 32.445 270.024 31.835C270.374 31.225 270.854 30.75 271.464 30.41C272.084 30.07 272.779 29.9 273.549 29.9C274.219 29.9 274.819 30.05 275.349 30.35C275.879 30.64 276.299 31.085 276.609 31.685C276.919 32.285 277.074 33.055 277.074 33.995C277.074 34.925 276.924 35.695 276.624 36.305C276.324 36.905 275.909 37.355 275.379 37.655C274.849 37.955 274.239 38.105 273.549 38.105ZM273.774 36.5C274.224 36.5 274.624 36.4 274.974 36.2C275.334 36 275.619 35.71 275.829 35.33C276.049 34.95 276.159 34.505 276.159 33.995C276.159 33.475 276.049 33.03 275.829 32.66C275.619 32.28 275.334 31.99 274.974 31.79C274.624 31.59 274.224 31.49 273.774 31.49C273.324 31.49 272.919 31.59 272.559 31.79C272.209 31.99 271.924 32.28 271.704 32.66C271.494 33.03 271.389 33.475 271.389 33.995C271.389 34.505 271.494 34.95 271.704 35.33C271.924 35.71 272.209 36 272.559 36.2C272.919 36.4 273.324 36.5 273.774 36.5ZM276.204 38V36.11L276.279 33.98L276.129 31.85V26.87H277.989V38H276.204Z" fill="white"/>
<path d="M285.392 38V36.38L285.287 36.035V33.2C285.287 32.65 285.122 32.225 284.792 31.925C284.462 31.615 283.962 31.46 283.292 31.46C282.842 31.46 282.397 31.53 281.957 31.67C281.527 31.81 281.162 32.005 280.862 32.255L280.127 30.89C280.557 30.56 281.067 30.315 281.657 30.155C282.257 29.985 282.877 29.9 283.517 29.9C284.677 29.9 285.572 30.18 286.202 30.74C286.842 31.29 287.162 32.145 287.162 33.305V38H285.392ZM282.872 38.105C282.272 38.105 281.747 38.005 281.297 37.805C280.847 37.595 280.497 37.31 280.247 36.95C280.007 36.58 279.887 36.165 279.887 35.705C279.887 35.255 279.992 34.85 280.202 34.49C280.422 34.13 280.777 33.845 281.267 33.635C281.757 33.425 282.407 33.32 283.217 33.32H285.542V34.565H283.352C282.712 34.565 282.282 34.67 282.062 34.88C281.842 35.08 281.732 35.33 281.732 35.63C281.732 35.97 281.867 36.24 282.137 36.44C282.407 36.64 282.782 36.74 283.262 36.74C283.722 36.74 284.132 36.635 284.492 36.425C284.862 36.215 285.127 35.905 285.287 35.495L285.602 36.62C285.422 37.09 285.097 37.455 284.627 37.715C284.167 37.975 283.582 38.105 282.872 38.105Z" fill="white"/>
<path d="M290.168 32.39C289.828 32.39 289.538 32.275 289.298 32.045C289.058 31.805 288.938 31.505 288.938 31.145C288.938 30.765 289.058 30.465 289.298 30.245C289.538 30.015 289.828 29.9 290.168 29.9C290.508 29.9 290.798 30.015 291.038 30.245C291.278 30.465 291.398 30.765 291.398 31.145C291.398 31.505 291.278 31.805 291.038 32.045C290.798 32.275 290.508 32.39 290.168 32.39ZM290.168 38.105C289.828 38.105 289.538 37.99 289.298 37.76C289.058 37.52 288.938 37.22 288.938 36.86C288.938 36.48 289.058 36.18 289.298 35.96C289.538 35.73 289.828 35.615 290.168 35.615C290.508 35.615 290.798 35.73 291.038 35.96C291.278 36.18 291.398 36.48 291.398 36.86C291.398 37.22 291.278 37.52 291.038 37.76C290.798 37.99 290.508 38.105 290.168 38.105Z" fill="white"/>
<path d="M160.524 70.18C159.564 70.18 158.67 70.024 157.842 69.712C157.026 69.388 156.312 68.938 155.7 68.362C155.1 67.774 154.632 67.084 154.296 66.292C153.96 65.5 153.792 64.636 153.792 63.7C153.792 62.764 153.96 61.9 154.296 61.108C154.632 60.316 155.106 59.632 155.718 59.056C156.33 58.468 157.044 58.018 157.86 57.706C158.676 57.382 159.57 57.22 160.542 57.22C161.574 57.22 162.516 57.4 163.368 57.76C164.22 58.108 164.94 58.63 165.528 59.326L164.016 60.748C163.56 60.256 163.05 59.89 162.486 59.65C161.922 59.398 161.31 59.272 160.65 59.272C159.99 59.272 159.384 59.38 158.832 59.596C158.292 59.812 157.818 60.118 157.41 60.514C157.014 60.91 156.702 61.378 156.474 61.918C156.258 62.458 156.15 63.052 156.15 63.7C156.15 64.348 156.258 64.942 156.474 65.482C156.702 66.022 157.014 66.49 157.41 66.886C157.818 67.282 158.292 67.588 158.832 67.804C159.384 68.02 159.99 68.128 160.65 68.128C161.31 68.128 161.922 68.008 162.486 67.768C163.05 67.516 163.56 67.138 164.016 66.634L165.528 68.074C164.94 68.758 164.22 69.28 163.368 69.64C162.516 70 161.568 70.18 160.524 70.18Z" fill="#D7FFE7"/>
<path d="M173.388 70V68.056L173.262 67.642V64.24C173.262 63.58 173.064 63.07 172.668 62.71C172.272 62.338 171.672 62.152 170.868 62.152C170.328 62.152 169.794 62.236 169.266 62.404C168.75 62.572 168.312 62.806 167.952 63.106L167.07 61.468C167.586 61.072 168.198 60.778 168.906 60.586C169.626 60.382 170.37 60.28 171.138 60.28C172.53 60.28 173.604 60.616 174.36 61.288C175.128 61.948 175.512 62.974 175.512 64.366V70H173.388ZM170.364 70.126C169.644 70.126 169.014 70.006 168.474 69.766C167.934 69.514 167.514 69.172 167.214 68.74C166.926 68.296 166.782 67.798 166.782 67.246C166.782 66.706 166.908 66.22 167.16 65.788C167.424 65.356 167.85 65.014 168.438 64.762C169.026 64.51 169.806 64.384 170.778 64.384H173.568V65.878H170.94C170.172 65.878 169.656 66.004 169.392 66.256C169.128 66.496 168.996 66.796 168.996 67.156C168.996 67.564 169.158 67.888 169.482 68.128C169.806 68.368 170.256 68.488 170.832 68.488C171.384 68.488 171.876 68.362 172.308 68.11C172.752 67.858 173.07 67.486 173.262 66.994L173.64 68.344C173.424 68.908 173.034 69.346 172.47 69.658C171.918 69.97 171.216 70.126 170.364 70.126Z" fill="#D7FFE7"/>
<path d="M181.37 70.126C180.566 70.126 179.792 70.024 179.048 69.82C178.316 69.604 177.734 69.346 177.302 69.046L178.166 67.336C178.598 67.612 179.114 67.84 179.714 68.02C180.314 68.2 180.914 68.29 181.514 68.29C182.222 68.29 182.732 68.194 183.044 68.002C183.368 67.81 183.53 67.552 183.53 67.228C183.53 66.964 183.422 66.766 183.206 66.634C182.99 66.49 182.708 66.382 182.36 66.31C182.012 66.238 181.622 66.172 181.19 66.112C180.77 66.052 180.344 65.974 179.912 65.878C179.492 65.77 179.108 65.62 178.76 65.428C178.412 65.224 178.13 64.954 177.914 64.618C177.698 64.282 177.59 63.838 177.59 63.286C177.59 62.674 177.764 62.146 178.112 61.702C178.46 61.246 178.946 60.898 179.57 60.658C180.206 60.406 180.956 60.28 181.82 60.28C182.468 60.28 183.122 60.352 183.782 60.496C184.442 60.64 184.988 60.844 185.42 61.108L184.556 62.818C184.1 62.542 183.638 62.356 183.17 62.26C182.714 62.152 182.258 62.098 181.802 62.098C181.118 62.098 180.608 62.2 180.272 62.404C179.948 62.608 179.786 62.866 179.786 63.178C179.786 63.466 179.894 63.682 180.11 63.826C180.326 63.97 180.608 64.084 180.956 64.168C181.304 64.252 181.688 64.324 182.108 64.384C182.54 64.432 182.966 64.51 183.386 64.618C183.806 64.726 184.19 64.876 184.538 65.068C184.898 65.248 185.186 65.506 185.402 65.842C185.618 66.178 185.726 66.616 185.726 67.156C185.726 67.756 185.546 68.278 185.186 68.722C184.838 69.166 184.34 69.514 183.692 69.766C183.044 70.006 182.27 70.126 181.37 70.126Z" fill="#D7FFE7"/>
<path d="M193.585 70V68.056L193.46 67.642V64.24C193.46 63.58 193.261 63.07 192.865 62.71C192.469 62.338 191.87 62.152 191.066 62.152C190.526 62.152 189.992 62.236 189.464 62.404C188.948 62.572 188.51 62.806 188.15 63.106L187.268 61.468C187.784 61.072 188.396 60.778 189.104 60.586C189.824 60.382 190.567 60.28 191.335 60.28C192.727 60.28 193.801 60.616 194.557 61.288C195.325 61.948 195.71 62.974 195.71 64.366V70H193.585ZM190.561 70.126C189.841 70.126 189.211 70.006 188.671 69.766C188.131 69.514 187.711 69.172 187.411 68.74C187.123 68.296 186.98 67.798 186.98 67.246C186.98 66.706 187.105 66.22 187.357 65.788C187.621 65.356 188.047 65.014 188.635 64.762C189.223 64.51 190.003 64.384 190.975 64.384H193.766V65.878H191.137C190.369 65.878 189.853 66.004 189.589 66.256C189.325 66.496 189.193 66.796 189.193 67.156C189.193 67.564 189.356 67.888 189.68 68.128C190.004 68.368 190.453 68.488 191.029 68.488C191.581 68.488 192.073 68.362 192.505 68.11C192.949 67.858 193.268 67.486 193.46 66.994L193.837 68.344C193.621 68.908 193.231 69.346 192.667 69.658C192.115 69.97 191.413 70.126 190.561 70.126Z" fill="#D7FFE7"/>
<path d="M132 72C136.971 72 141 67.9706 141 63C141 58.0294 136.971 54 132 54C127.029 54 123 58.0294 123 63C123 67.9706 127.029 72 132 72Z" fill="#32BA7C"/>
<path d="M129.7 67.0599L134.328 71.6877C138.161 70.6656 141 67.1735 141 63C141 62.9148 141 62.8296 141 62.7445L137.366 59.3943L129.7 67.0599Z" fill="#0AA06E"/>
<path d="M132.227 65.0158C132.625 65.4133 132.625 66.0946 132.227 66.4921L131.404 67.3155C131.006 67.7129 130.325 67.7129 129.927 67.3155L126.322 63.6814C125.924 63.2839 125.924 62.6025 126.322 62.2051L127.145 61.3817C127.543 60.9842 128.224 60.9842 128.621 61.3817L132.227 65.0158Z" fill="white"/>
<path d="M135.379 58.7413C135.776 58.3439 136.457 58.3439 136.855 58.7413L137.678 59.5647C138.076 59.9622 138.076 60.6435 137.678 61.041L131.432 67.2587C131.035 67.6562 130.353 67.6562 129.956 67.2587L129.133 66.4353C128.735 66.0379 128.735 65.3565 129.133 64.959L135.379 58.7413Z" fill="white"/>
<path d="M132 158C136.971 158 141 153.971 141 149C141 144.029 136.971 140 132 140C127.029 140 123 144.029 123 149C123 153.971 127.029 158 132 158Z" fill="#F15249"/>
<path d="M128.224 153.06L133.079 157.915C137.167 157.432 140.404 154.224 140.915 150.136L136.032 145.252L128.224 153.06Z" fill="#AD0E0E"/>
<path d="M136.259 150.987C136.656 151.385 136.656 152.066 136.259 152.464L135.464 153.259C135.066 153.656 134.385 153.656 133.987 153.259L127.741 147.013C127.344 146.615 127.344 145.934 127.741 145.536L128.565 144.713C128.962 144.315 129.644 144.315 130.041 144.713L136.259 150.987Z" fill="white"/>
<path d="M132.965 147.666L130.666 149.965L133.987 153.259C134.385 153.656 135.066 153.656 135.464 153.259L136.287 152.435C136.684 152.038 136.684 151.356 136.287 150.959L132.965 147.666Z" fill="#D6D6D6"/>
<path d="M133.987 144.741C134.385 144.344 135.066 144.344 135.464 144.741L136.287 145.565C136.685 145.962 136.685 146.644 136.287 147.041L130.013 153.259C129.615 153.656 128.934 153.656 128.536 153.259L127.741 152.464C127.344 152.066 127.344 151.385 127.741 150.987L133.987 144.741Z" fill="white"/>
</svg>
