<svg xmlns="http://www.w3.org/2000/svg" width="49.502" height="49.502" viewBox="0 0 49.502 49.502"><g transform="translate(-65.794 -963.794)"><path d="M23.969-.75a24.726,24.726,0,0,1,9.622,47.5A24.726,24.726,0,0,1,14.347,1.193,24.565,24.565,0,0,1,23.969-.75Zm0,47.939A23.226,23.226,0,0,0,33.007,2.574a23.226,23.226,0,0,0-18.076,42.79A23.073,23.073,0,0,0,23.969,47.189Z" transform="translate(66.545 964.606) rotate(-0.073)" fill="#15171b"/><path d="M50,52.212a8.482,8.482,0,0,1-5.34-2.017,16.634,16.634,0,0,1-4.175-5.289A37.064,37.064,0,0,1,36.73,27.88a37.064,37.064,0,0,1,3.754-17.027,16.634,16.634,0,0,1,4.175-5.289,8.079,8.079,0,0,1,10.681,0,16.634,16.634,0,0,1,4.174,5.289A37.065,37.065,0,0,1,63.269,27.88a37.065,37.065,0,0,1-3.754,17.027A16.634,16.634,0,0,1,55.34,50.2,8.482,8.482,0,0,1,50,52.212ZM50,5.047a7.024,7.024,0,0,0-4.406,1.69,15.163,15.163,0,0,0-3.784,4.819A35.553,35.553,0,0,0,38.23,27.88,35.553,35.553,0,0,0,41.809,44.2a15.163,15.163,0,0,0,3.784,4.819,6.588,6.588,0,0,0,8.811,0A15.162,15.162,0,0,0,58.189,44.2,35.554,35.554,0,0,0,61.769,27.88a35.554,35.554,0,0,0-3.579-16.324,15.162,15.162,0,0,0-3.784-4.819A7.024,7.024,0,0,0,50,5.047Z" transform="translate(40.546 960.665)" fill="#15171b"/><path d="M0,48.689a.75.75,0,0,1-.75-.75V0A.75.75,0,0,1,0-.75.75.75,0,0,1,.75,0V47.939A.75.75,0,0,1,0,48.689Z" transform="translate(90.545 964.575)" fill="#15171b"/><path d="M44.208.75H0A.75.75,0,0,1-.75,0,.75.75,0,0,1,0-.75H44.208a.75.75,0,0,1,.75.75A.75.75,0,0,1,44.208.75Z" transform="translate(68.227 979.785)" fill="#15171b"/><path d="M44.208.75H0A.75.75,0,0,1-.75,0,.75.75,0,0,1,0-.75H44.208a.75.75,0,0,1,.75.75A.75.75,0,0,1,44.208.75Z" transform="translate(68.227 997.304)" fill="#15171b"/></g></svg>