<svg width="50" height="36" viewBox="0 0 50 36" fill="none" xmlns="http://www.w3.org/2000/svg">
<path d="M37.0618 9.87769H7.45443L13.512 3.7627C14.3647 2.9019 14.3647 1.50649 13.512 0.645693C12.659 -0.215353 11.277 -0.215108 10.424 0.645693L0.639534 10.5235C-0.213178 11.3843 -0.213178 12.7797 0.639534 13.6405L10.424 23.5178C10.8505 23.9483 11.4092 24.1633 11.9679 24.1633C12.5265 24.1633 13.0852 23.9481 13.5117 23.5178C14.3644 22.657 14.3644 21.2616 13.5117 20.4008L7.45419 14.2858H37.0616C41.788 14.2858 45.6333 18.1676 45.6333 22.9388C45.6333 27.7101 41.788 31.5919 37.0616 31.5919H19.0511C17.8451 31.5919 16.8677 32.5786 16.8677 33.796C16.8677 35.0133 17.8451 36 19.0511 36H37.0616C44.1957 36 50 30.1407 50 22.9388C50 15.737 44.196 9.87769 37.0618 9.87769Z" fill="#ED8B00"/>
</svg>
