<svg width="75" height="75" viewBox="0 0 75 75" fill="none" xmlns="http://www.w3.org/2000/svg">
<path d="M75 43.5104V31.4896L66.2186 30.0247C65.5334 27.3849 64.4829 24.8581 63.0867 22.4854L68.2671 15.2329L59.7656 6.7337L52.5131 11.9141C50.1411 10.5164 47.6135 9.46655 44.9745 8.78143L43.5112 0H31.4888L30.0255 8.78143C27.3865 9.46655 24.8589 10.5164 22.4869 11.9141L15.2344 6.7337L6.73294 15.2329L11.9133 22.4854C10.5171 24.8581 9.46655 27.3849 8.78143 30.0247L0 31.4896V43.5104L8.78143 44.9753C9.46655 47.6151 10.5171 50.1419 11.9133 52.5146L6.73294 59.7672L15.2344 68.2663L22.4869 63.0859C24.8589 64.4837 27.3865 65.5334 30.0255 66.2186L31.4888 75H43.5112L44.9745 66.2186C47.6135 65.5334 50.1411 64.4837 52.5131 63.0859L59.7656 68.2663L68.2671 59.7672L63.0867 52.5146C64.4829 50.1419 65.5334 47.6151 66.2186 44.9753L75 43.5104ZM63.4155 43.2663C62.7518 46.2646 61.5677 49.1165 59.8961 51.741L59.3292 52.6306L64.1853 59.4284L59.4284 64.1861L52.6291 59.3292L51.7403 59.8953C49.115 61.5677 46.2639 62.7518 43.2655 63.4155L42.2356 63.6444L40.8638 71.875H34.1362L32.7644 63.6444L31.7345 63.4155C28.7361 62.7518 25.885 61.5677 23.2597 59.8953L22.3709 59.3292L15.5716 64.1861L10.8147 59.4284L15.6708 52.6306L15.1039 51.741C13.4323 49.1165 12.2482 46.2646 11.5845 43.2663L11.3564 42.2363L3.125 40.8646V34.1354L11.3564 32.7637L11.5845 31.7337C12.2482 28.7354 13.4323 25.8835 15.1039 23.259L15.6708 22.3694L10.8147 15.5716L15.5716 10.8139L22.3709 15.6708L23.2597 15.1047C25.885 13.4323 28.7361 12.2482 31.7345 11.5845L32.7644 11.3556L34.1362 3.125H40.8638L42.2356 11.3556L43.2655 11.5845C46.2639 12.2482 49.115 13.4323 51.7403 15.1047L52.6291 15.6708L59.4284 10.8139L64.1853 15.5716L59.3292 22.3694L59.8961 23.259C61.5677 25.8835 62.7518 28.7354 63.4155 31.7337L63.6437 32.7637L71.875 34.1354V40.8646L63.6437 42.2363L63.4155 43.2663Z" fill="#ED8B00"/>
<path d="M37.5 21.875C28.8842 21.875 21.875 28.8849 21.875 37.5C21.875 46.1151 28.8842 53.125 37.5 53.125C46.1159 53.125 53.125 46.1151 53.125 37.5C53.125 28.8849 46.1159 21.875 37.5 21.875ZM37.5 50C30.6076 50 25 44.3924 25 37.5C25 30.6076 30.6076 25 37.5 25C44.3924 25 50 30.6076 50 37.5C50 44.3924 44.3924 50 37.5 50Z" fill="#ED8B00"/>
</svg>
