<svg width="63" height="72" viewBox="0 0 63 72" fill="none" xmlns="http://www.w3.org/2000/svg">
<path d="M61.3274 0H7.03248C3.15469 0 0 2.44032 0 5.44V66.56C0 69.5597 3.15469 72 7.03248 72H61.3274C62.1841 72 62.8786 71.4627 62.8786 70.8V1.2C62.8786 0.53728 62.1841 0 61.3274 0ZM7.03248 2.4H59.7761V61.12H7.03248C5.578 61.12 4.22528 61.4634 3.10256 62.0507V5.44C3.10256 3.76368 4.86544 2.4 7.03248 2.4ZM7.03248 69.6C4.86544 69.6 3.10256 68.2363 3.10256 66.56C3.10256 64.8837 4.86544 63.52 7.03248 63.52H59.7761V65.44H43.3325C42.4758 65.44 41.7812 65.9773 41.7812 66.64C41.7812 67.3027 42.4758 67.84 43.3325 67.84H59.7761V69.6H7.03248Z" fill="#ED8B00"/>
<path d="M30.1844 43.6901C30.4763 44.0008 30.9429 44.1846 31.4393 44.1846C31.9357 44.1846 32.4023 44.0008 32.6942 43.6901L43.3804 32.3157C45.4453 30.1179 46.4307 27.416 46.1554 24.7075C45.8801 21.999 44.3609 19.4494 41.8774 17.5283C39.0892 15.3717 35.3822 14.1838 31.4393 14.1838C27.4964 14.1838 23.7894 15.3717 21.0014 17.5283C18.5179 19.4494 16.9987 21.999 16.7234 24.7075C16.4481 27.416 17.4337 30.1179 19.4984 32.3157L30.1844 43.6901ZM23.1952 19.2254C25.3972 17.5221 28.3249 16.5838 31.4393 16.5838C34.5534 16.5838 37.4812 17.5219 39.6834 19.2254C43.7639 22.3819 44.263 27.2937 40.8707 30.9048L31.4393 40.9433L22.0079 30.9046C18.6154 27.2936 19.1147 22.3819 23.1952 19.2254Z" fill="#ED8B00"/>
<path d="M31.4394 31.2131C35.4386 31.2131 38.6921 28.6963 38.6921 25.6027C38.6921 22.5091 35.4386 19.9922 31.4394 19.9922C27.4402 19.9922 24.1864 22.509 24.1864 25.6027C24.1864 28.6963 27.4402 31.2131 31.4394 31.2131ZM31.4394 22.3922C33.7278 22.3922 35.5896 23.8323 35.5896 25.6027C35.5896 27.373 33.7278 28.8131 31.4394 28.8131C29.1509 28.8131 27.289 27.373 27.289 25.6027C27.289 23.8323 29.1509 22.3922 31.4394 22.3922Z" fill="#ED8B00"/>
<path d="M40.1932 66.1806C39.6693 65.2202 37.8522 65.2115 37.3285 66.1806C37.0636 66.6707 37.2644 67.2531 37.8007 67.5821C38.2988 67.8877 39.0097 67.9206 39.5543 67.6702C40.2085 67.3696 40.4836 66.7246 40.1932 66.1806C40.1539 66.1087 40.2325 66.2542 40.1932 66.1806Z" fill="#ED8B00"/>
</svg>
