<svg width="79" height="75" viewBox="0 0 79 75" fill="none" xmlns="http://www.w3.org/2000/svg">
<path d="M44.7893 20.2036C44.1748 19.5872 43.1783 19.5872 42.5636 20.2036L41.0688 21.703C40.4542 22.3194 40.4542 23.3189 41.0688 23.9355C41.3761 24.2437 41.779 24.3978 42.1817 24.3978C42.5844 24.3978 42.9873 24.2438 43.2945 23.9355L44.7893 22.4361C45.4039 21.8197 45.4039 20.8201 44.7893 20.2036Z" fill="#ED8B00"/>
<path d="M77.4265 59.2975H52.752V41.9693C52.752 41.9589 52.7507 41.9487 52.7505 41.9383L74.3112 20.3118C74.9258 19.6954 74.9258 18.6959 74.3112 18.0794L56.7476 0.46229C56.4526 0.166375 56.0523 0 55.6348 0C55.2173 0 54.8172 0.166375 54.522 0.46229L10.9244 44.193C10.3098 44.8094 10.3098 45.8089 10.9244 46.4253L11.8985 47.4024L0.733851 54.4695C0.329284 54.7257 0.0628132 55.1524 0.00973494 55.6292C-0.0433433 56.106 0.122526 56.5812 0.4609 56.9206L18.0245 74.5377C18.3214 74.8353 18.7223 75 19.1373 75C19.1954 75 19.2538 74.9967 19.312 74.9902C19.7874 74.937 20.2129 74.6699 20.4681 74.2639L27.5138 63.0653L28.4879 64.0423C28.7829 64.3382 29.1833 64.5046 29.6007 64.5046C30.0181 64.5046 30.4183 64.3382 30.7135 64.0423L49.6044 45.0937V60.8759C49.6044 61.7478 50.3089 62.4544 51.1781 62.4544H77.4263C78.2955 62.4544 79 61.7478 79 60.8759C79.0002 60.0041 78.2956 59.2975 77.4265 59.2975ZM47.9048 11.5645L53.2777 16.9538L27.3657 42.9449L25.8544 41.429L38.6857 28.5586C39.3003 27.9421 39.3003 26.9426 38.6857 26.326C38.0711 25.7096 37.0747 25.7096 36.46 26.326L23.6286 39.1965L21.9928 37.5556L47.9048 11.5645ZM18.8574 70.9087L4.07901 56.0851L14.1802 49.6911L25.2321 60.7766L18.8574 70.9087ZM29.6008 60.6939L14.2626 45.309L19.7672 39.7877L26.2529 46.2932C26.5601 46.6015 26.963 46.7555 27.3657 46.7555C27.7684 46.7555 28.1713 46.6015 28.4785 46.2932L56.6161 18.0698C57.2307 17.4534 57.2307 16.4539 56.6161 15.8373L50.1304 9.33184L55.6349 3.81052L70.9732 19.1955L29.6008 60.6939Z" fill="#ED8B00"/>
</svg>
