<svg width="74" height="52" viewBox="0 0 121 86" fill="none" xmlns="http://www.w3.org/2000/svg">
<path d="M89.6896 23.5967H18.0397L32.6989 8.98867C34.7625 6.93231 34.7625 3.59885 32.6989 1.54249C30.6348 -0.514455 27.2902 -0.51387 25.2261 1.54249L1.54767 25.1394C-0.51589 27.1958 -0.51589 30.5292 1.54767 32.5856L25.2261 56.1814C26.2582 57.2098 27.6102 57.7235 28.9622 57.7235C30.3143 57.7235 31.6663 57.2092 32.6984 56.1814C34.7619 54.125 34.7619 50.7915 32.6984 48.7352L18.0391 34.1271H89.689C101.127 34.1271 110.433 43.4003 110.433 54.7984C110.433 66.1964 101.127 75.4696 89.689 75.4696H46.1036C43.1852 75.4696 40.8199 77.8266 40.8199 80.7348C40.8199 83.6429 43.1852 86 46.1036 86H89.689C106.954 86 121 72.0027 121 54.7984C121 37.594 106.954 23.5967 89.6896 23.5967Z" fill="#ED8B00"/>
</svg>
