<svg xmlns="http://www.w3.org/2000/svg" width="76" height="53" fill="none" viewBox="0 0 76 53">
  <g clip-path="url(#a)">
    <path fill="#ED8B00" d="M56.334 14.542H11.331l9.207-9.002a3.194 3.194 0 0 0 0-4.59 3.372 3.372 0 0 0-4.694 0L.973 15.494a3.194 3.194 0 0 0 0 4.589l14.873 14.541c.648.634 1.497.95 2.346.95.85 0 1.699-.316 2.347-.95a3.194 3.194 0 0 0 0-4.588l-9.208-9.003h45.004c7.184 0 13.029 5.715 13.029 12.74 0 7.023-5.845 12.738-13.03 12.738H28.959c-1.833 0-3.32 1.453-3.32 3.245S27.126 53 28.959 53h27.376C67.178 53 76 44.374 76 33.771s-8.822-19.229-19.666-19.229Z"/>
  </g>
  <defs>
    <clipPath id="a">
      <path fill="#fff" d="M0 0h76v53H0z"/>
    </clipPath>
  </defs>
</svg>
