<svg width="72" height="72" viewBox="0 0 104 104" fill="none" xmlns="http://www.w3.org/2000/svg">
<path d="M98.6055 82.1418C97.5462 81.9575 96.5467 82.5815 96.3329 83.5667C94.1836 93.6055 85.8462 100.351 75.5907 100.351C65.9071 100.351 57.3984 94.3298 54.5056 85.7544H63.5556V82.1053H48.1481V96.7018H52V89.679C56.1773 98.2216 65.3178 104 75.5907 104C87.7317 104 97.5847 96.0796 100.11 84.2929C100.321 83.304 99.6474 82.3425 98.6055 82.1418Z" fill="#ED8B00"/>
<path d="M98.2222 68.0726C93.8889 59.9441 85.3108 54.7368 75.5907 54.7368C63.8252 54.7368 53.3636 62.0296 50.1511 72.4734C49.8545 73.4404 50.44 74.453 51.4627 74.734C52.4815 75.0223 53.5523 74.4604 53.8489 73.4915C56.5413 64.7391 65.6837 58.386 75.5907 58.386C84.3825 58.386 92.0804 63.4327 95.4855 71.1579H86.6667V74.807H102.074V60.2105H98.2222V68.0726Z" fill="#ED8B00"/>
<path d="M52 25.5439H86.6667C87.7317 25.5439 88.5926 24.7283 88.5926 23.7193C88.5926 22.7103 87.7317 21.8947 86.6667 21.8947H52C50.935 21.8947 50.0741 22.7103 50.0741 23.7193C50.0741 24.7283 50.935 25.5439 52 25.5439Z" fill="#ED8B00"/>
<path d="M52 51.0877H86.6667C87.7317 51.0877 88.5926 50.2721 88.5926 49.2632C88.5926 48.2542 87.7317 47.4386 86.6667 47.4386H52C50.935 47.4386 50.0741 48.2542 50.0741 49.2632C50.0741 50.2721 50.935 51.0877 52 51.0877Z" fill="#ED8B00"/>
<path d="M39.6336 13.2116C38.8286 12.5585 37.6114 12.6406 36.92 13.4087L24.8868 26.7061L17.5259 21.4769C16.6766 20.873 15.469 21.0335 14.8316 21.8418C14.1921 22.6465 14.3655 23.7905 15.2167 24.3944L24.0201 30.6508C24.3649 30.8971 24.7713 31.0157 25.1738 31.0157C25.7188 31.0157 26.2581 30.7986 26.6375 30.3771L39.8436 15.7806C40.5369 15.018 40.4425 13.8685 39.6336 13.2116Z" fill="#ED8B00"/>
<path d="M39.6336 38.7555C38.8286 38.1005 37.6114 38.1862 36.92 38.9526L24.8868 52.25L17.5259 47.0208C16.6766 46.4168 15.469 46.5774 14.8316 47.3857C14.1921 48.1903 14.3655 49.3343 15.2167 49.9382L24.0201 56.1947C24.3649 56.441 24.7713 56.5596 25.1738 56.5596C25.7188 56.5596 26.2581 56.3425 26.6375 55.921L39.8436 41.3245C40.5369 40.5618 40.4425 39.4124 39.6336 38.7555Z" fill="#ED8B00"/>
<path d="M36.92 66.3228L24.8868 79.6184L17.5259 74.3892C16.6766 73.7871 15.469 73.9458 14.8316 74.7541C14.1921 75.5587 14.3655 76.7027 15.2167 77.3067L24.0201 83.5631C24.3649 83.8094 24.7713 83.928 25.1738 83.928C25.7188 83.928 26.2581 83.7109 26.6375 83.2894L39.8436 68.6947C40.5369 67.9302 40.4444 66.779 39.6356 66.1239C38.8286 65.4707 37.6114 65.5547 36.92 66.3228Z" fill="#ED8B00"/>
<path d="M80.5499 0H23.4501C10.5194 0 0 9.96575 0 22.2159V76.3105C0 88.5606 10.5194 98.5263 23.4501 98.5263H40.4444C41.5095 98.5263 42.3704 97.7107 42.3704 96.7018C42.3704 95.6928 41.5095 94.8772 40.4444 94.8772H23.4501C12.6418 94.8772 3.85185 86.5499 3.85185 76.3105V22.2159C3.85185 11.9764 12.6418 3.64912 23.4501 3.64912H80.5499C91.3582 3.64912 100.148 11.9764 100.148 22.2159V49.2632C100.148 50.2721 101.009 51.0877 102.074 51.0877C103.139 51.0877 104 50.2721 104 49.2632V22.2159C104 9.96575 93.4806 0 80.5499 0Z" fill="#ED8B00"/>
</svg>
