<svg width="71" height="68" viewBox="0 0 71 68" fill="none" xmlns="http://www.w3.org/2000/svg">
<path d="M17.1344 34.7524H52.3751C60.1543 34.7524 66.4684 28.6478 66.4684 21.1529C66.4684 13.658 60.1393 7.55331 52.3751 7.55331H17.9954C17.1344 2.47614 12.2101 -0.89357 7.13469 0.209552C2.58793 1.19169 -0.493561 5.54355 0.0653841 10.1524C0.699809 15.3202 5.50331 18.8561 10.5787 18.0099C14.3853 17.3601 17.361 14.3834 18.0105 10.5755H52.3903C58.4928 10.5755 63.4625 15.3202 63.4625 21.153C63.4625 26.9857 58.4929 31.7305 52.3903 31.7305H17.1344C9.35517 31.7305 3.02594 37.8351 3.02594 45.33C3.02594 52.8249 9.35503 58.9296 17.1192 58.9296H41.6654L35.2003 65.412C34.5961 65.9862 34.5811 66.9533 35.1702 67.5426C35.7593 68.132 36.7109 68.1621 37.3 67.5728C37.3152 67.5577 37.3302 67.5426 37.3302 67.5426L46.3782 58.4914C46.9673 57.9021 46.9673 56.9501 46.3782 56.3608L37.3302 47.2945C36.7259 46.7203 35.7743 46.7353 35.2003 47.3246C34.6414 47.9139 34.6414 48.8357 35.2003 49.4251L41.6805 55.9075H17.1344C11.0167 55.9075 6.0471 51.1628 6.0471 45.33C6.0471 39.4972 11.0167 34.7524 17.1344 34.7524ZM9.06812 15.0936C5.72989 15.0936 3.02594 12.3888 3.02594 9.04926C3.02594 5.70986 5.72975 3.00497 9.06812 3.00497C12.4064 3.00497 15.1103 5.70972 15.1103 9.04926C15.1103 12.3887 12.4064 15.0936 9.06812 15.0936Z" fill="#ED8B00"/>
<path d="M61.9368 48.3368C56.9369 48.3368 52.8736 52.4015 52.8736 57.4032C52.8736 62.4048 56.9369 66.4696 61.9368 66.4696C66.9367 66.4696 71 62.4048 71 57.4032C71 52.4015 66.9519 48.352 61.9368 48.3368ZM61.9368 63.4475C58.5986 63.4475 55.8946 60.7427 55.8946 57.4032C55.8946 54.0636 58.5984 51.3589 61.9368 51.3589C65.2752 51.3589 67.979 54.0636 67.979 57.4032C67.979 60.7427 65.2752 63.4475 61.9368 63.4475Z" fill="#ED8B00"/>
</svg>
